<svg width="64" height="64" viewBox="0 0 64 64" fill="none" xmlns="http://www.w3.org/2000/svg">
<clipPath id="mask0_562_4297" style="mask-type:alpha" maskUnits="userSpaceOnUse" x="0" y="0" width="64" height="64"><circle cx="32" cy="32" r="32" fill="#D9D9D9"></circle></clipPath>
<g clip-path="url(#mask0_562_4297)">
<rect x="20" width="24" height="64" fill="#FFD400"></rect>
<rect width="20" height="64" fill="#231D9A"></rect>
<rect x="44" width="20" height="64" fill="#F0263C"></rect>
</g>
<path fill-rule="evenodd" clip-rule="evenodd" d="M24.0003 24.1465L25.5559 26.6667L23.3337 26.6667L22.667 30.0073L24.8892 32.8205L23.3337 37.4359L23.3337 39.3846L29.7781 41.6557L29.3337 42.8278L30.667 43.7656L31.3337 43.5311L32.0003 44L32.0003 43.9487L32.667 43.4799L33.3337 43.7143L34.667 42.7766L34.2225 41.6044L40.667 39.3333L40.667 37.3846L39.1114 32.8205L41.3337 30.0073L40.667 26.9597L38.4448 26.9597L40.0003 24.1465L38.8892 22.7399L36.0003 22.7399L36.0003 23.9121L34.2225 23.9121L34.667 21.8022L33.7781 21.3333L32.0003 21.8022L30.2225 21.3333L29.3337 21.8022L29.7781 23.9121L28.0003 23.9121L28.0003 22.7399L25.1114 22.7399L24.0003 24.1465Z" fill="#CC9500"></path>
<rect x="26.667" y="26.6666" width="4" height="5.33333" fill="#F0263C"></rect>
<path d="M26.667 33.3334H30.667V38.6667L26.667 37.3334V33.3334Z" fill="#FFD400"></path>
<path d="M37.333 33.3334H33.333V38.6667L37.333 37.3334V33.3334Z" fill="#FFD400"></path>
<rect x="33.333" y="26.6666" width="4" height="5.33333" fill="#FFD400"></rect>
<rect x="33.333" y="26.6666" width="1.33333" height="5.33333" fill="#F0263C"></rect>
<path d="M29.333 33.3334H30.6663V38.6667L29.333 38.238V33.3334Z" fill="#F0263C"></path>
<path d="M26.667 33.3334H28.0003V37.7621L26.667 37.3334L26.667 33.3334Z" fill="#F0263C"></path>
<rect x="36" y="26.6666" width="1.33333" height="5.33333" fill="#F0263C"></rect>
<path d="M27.333 29.3333L27.9997 30.6667H29.333L29.9997 29.3333L28.6663 28L27.333 29.3333Z" fill="#FFD400"></path>
<path d="M33.333 33.3334H34.6663L33.333 34.6667V33.3334Z" fill="#F0263C"></path>
<path d="M33.333 36H34.6663L33.333 37.3333V36Z" fill="#F0263C"></path>
<rect x="34.667" y="33.3334" width="2.66667" height="1.33333" fill="#F0263C"></rect>
<rect x="34.667" y="36" width="2.66667" height="1.33333" fill="#F0263C"></rect>
</svg>
