<svg width="64" height="64" viewBox="0 0 64 64" fill="none" xmlns="http://www.w3.org/2000/svg">
<g clip-path="url(#clip0_199_9808)">
<path d="M21.333 42.6666H62.1997C63.333 39.3333 63.9997 35.7333 63.9997 31.9999C63.9997 28.2666 63.333 24.6666 62.1997 21.3333H21.333V42.6666Z" fill="white"/>
<path d="M21.333 21.3333H62.1997C57.7997 8.93333 45.933 0 31.9997 0C28.2663 0 24.6663 0.666667 21.333 1.8V21.3333Z" fill="#005B13"/>
<path d="M62.1997 42.6667H21.333V62.2001C24.6663 63.3334 28.2663 64.0001 31.9997 64.0001C45.933 64.0001 57.7997 55.0667 62.1997 42.6667Z" fill="black"/>
<path d="M21.3333 62.2003V42.667V21.3336V1.80029C8.93333 6.20029 0 18.067 0 32.0003C0 45.9336 8.93333 57.8003 21.3333 62.2003Z" fill="#F0263C"/>
</g>
<defs>
<clipPath id="clip0_199_9808">
<rect width="64" height="64" fill="white"/>
</clipPath>
</defs>
</svg>
