<svg width="64" height="64" viewBox="0 0 64 64" fill="none" xmlns="http://www.w3.org/2000/svg">
<g clip-path="url(#clip0_197_7116)">
<clipPath id="mask0_197_7116" style="mask-type:alpha" maskUnits="userSpaceOnUse" x="0" y="0" width="64" height="64"><path d="M32 64C49.6731 64 64 49.6731 64 32C64 14.3269 49.6731 0 32 0C14.3269 0 0 14.3269 0 32C0 49.6731 14.3269 64 32 64Z" fill="#231D9A"></path></clipPath>
<g clip-path="url(#mask0_197_7116)">
<rect width="64" height="64" fill="#231D9A"></rect>
<path d="M15.9528 42.6732L10.626 48L15.9528 53.3268L21.2796 48L15.9528 42.6732Z" fill="white"></path>
<path d="M38.7141 19.987L35.3672 23.334L38.7141 26.6809L42.0611 23.334L38.7141 19.987Z" fill="white"></path>
<path d="M48.0471 9.32054L44.7002 12.6675L48.0471 16.0144L51.3941 12.6675L48.0471 9.32054Z" fill="white"></path>
<path d="M48.0471 46.6531L44.7002 50L48.0471 53.3469L51.3941 50L48.0471 46.6531Z" fill="white"></path>
<path d="M56.0471 18.6535L52.7002 22.0005L56.0471 25.3474L59.3941 22.0005L56.0471 18.6535Z" fill="white"></path>
<path d="M50.6674 28.0211L48.6875 30.001L50.6674 31.9809L52.6473 30.001L50.6674 28.0211Z" fill="white"></path>
<clipPath id="mask1_197_7116" style="mask-type:alpha" maskUnits="userSpaceOnUse" x="0" y="0" width="31" height="28"><rect width="30.7" height="28" fill="#D9D9D9"></rect></clipPath>
<g clip-path="url(#mask1_197_7116)">
<path d="M11.8199 8.83385V8.51438L-2.23568 -0.749512C-2.87747 0.0455519 -3.66156 0.93526 -4.15234 1.80604L6.70877 8.83382L11.8199 8.83385Z" fill="#F0263C"></path>
<path d="M11.5012 7.04481L-0.606163 -0.973309C-0.893663 -0.653864 -1.18116 -0.33442 -1.43672 -0.0149759L11.5331 8.5462V8.8337H7.2845L-2.87422 2.1253C-3.06589 2.50863 -3.25755 2.89197 -3.44922 3.2753L4.9845 8.8337H2.73242H-0.382535C-0.478369 9.24897 -0.574202 9.66425 -0.638091 10.1115H12.7789L12.7789 -3.30518C12.3317 -3.24129 11.9164 -3.14545 11.5011 -3.04962L11.5012 7.04481Z" fill="white"></path>
<path d="M-0.638252 15.2227C-0.574363 15.6699 -0.47853 16.0852 -0.382696 16.5004H4.98435L-3.57715 22.1865C-3.41743 22.5698 -3.22576 22.9531 -3.00215 23.3365L7.28434 16.5004H11.501V16.756L-1.59659 25.4448C-1.34104 25.7962 -1.05354 26.1156 -0.766037 26.4031L11.501 18.2893L11.501 28.0642C11.9163 28.1601 12.3316 28.2559 12.7788 28.3198L12.7788 17.4268V15.8935V15.2227H-0.638252Z" fill="white"></path>
<path d="M31.3057 10.1116C31.2418 9.66436 31.146 9.24908 31.0501 8.8338H25.6841L32.9029 4.04214C32.7112 3.65881 32.5515 3.27547 32.3279 2.89214L23.3841 8.8338H19.1674V8.57825L31.8807 0.208789C31.6251 -0.142599 31.3376 -0.462044 31.0501 -0.749544L19.1674 7.04492V-2.98566C18.7521 -3.08149 18.3369 -3.17732 17.8896 -3.24121V7.90742V9.44075V10.1116H31.3057Z" fill="white"></path>
<path d="M17.8897 15.2227L17.8896 28.6392C18.3369 28.5754 18.7521 28.4795 19.1674 28.3837L19.1674 18.2893L30.7946 25.7642C31.0821 25.4448 31.3696 25.1254 31.6251 24.8059L19.1674 16.756V16.5004H23.3841L32.0085 22.1226C32.2001 21.7392 32.3918 21.3559 32.5835 20.9726L25.6841 16.5004H31.0501C31.146 16.0852 31.2418 15.6699 31.3057 15.2227H17.8897Z" fill="white"></path>
<path d="M32.5837 2.76405C32.1684 2.02933 31.6892 1.2946 31.1781 0.655715L19.167 8.57797V8.83352H23.3837L32.5837 2.76405Z" fill="#F0263C"></path>
<path d="M-2.04394 22.6977C-1.62866 23.4324 -1.14949 24.1672 -0.638382 24.806L11.5005 16.756V16.5005H7.28385L-2.04394 22.6977Z" fill="#F0263C"></path>
<path d="M19.167 16.5005V16.756L30.8587 24.3588C31.4017 23.688 31.8489 22.9852 32.2642 22.2505L23.3837 16.5005H19.167Z" fill="#F0263C"></path>
<path d="M30.9862 10.1114H17.889V9.44055V7.90721V-2.9858C17.0584 -3.14552 16.1959 -3.20941 15.3334 -3.20941C14.4709 -3.20941 13.6084 -3.14552 12.7779 -2.9858V10.1114H-0.319358C-0.47908 10.9419 -0.542969 11.8044 -0.542969 12.6669C-0.542969 13.5294 -0.47908 14.3919 -0.319358 15.2225H12.7779L12.7778 28.3197C13.6084 28.4475 14.4709 28.5433 15.3334 28.5433C16.1959 28.5433 17.0584 28.4794 17.889 28.3197L17.889 15.2225H30.9862C31.114 14.3919 31.2098 13.5294 31.2098 12.6669C31.2098 11.8044 31.1459 10.9419 30.9862 10.1114Z" fill="#F0263C"></path>
</g>
</g>
</g>
<defs>
<clipPath id="clip0_197_7116">
<rect width="64" height="64" fill="white"></rect>
</clipPath>
</defs>
</svg>
