<svg width="64" height="64" viewBox="0 0 64 64" fill="none" xmlns="http://www.w3.org/2000/svg">
<g clip-path="url(#clip0_199_10097)">
<clipPath id="mask0_199_10097" style="mask-type:alpha" maskUnits="userSpaceOnUse" x="0" y="0" width="64" height="64"><circle cx="32" cy="32" r="32" fill="#C4C4C4"></circle></clipPath>
<g clip-path="url(#mask0_199_10097)">
<path d="M0 0H64V64H0V0Z" fill="#FFD400"></path>
<path d="M-3 1.99985L-3 17.5L68 48L68 32.5L-3 1.99985Z" fill="white"></path>
<path d="M-3 16.9998L-3 32.5L68 63L68 47.5L-3 16.9998Z" fill="black"></path>
<path d="M20 39H18L17.5 41H20.5L20 39Z" fill="#F0263C"></path>
<rect x="31" y="17" width="2" height="5" fill="#F0263C"></rect>
<rect x="31" y="27" width="2" height="13" fill="#F0263C"></rect>
<path d="M40 43.5C39.4294 42.6788 39.4296 42.6786 39.4297 42.6785C39.4298 42.6785 39.4299 42.6784 39.43 42.6784C39.4301 42.6783 39.4302 42.6782 39.4302 42.6782C39.4302 42.6782 39.43 42.6784 39.4295 42.6787C39.4286 42.6793 39.4268 42.6806 39.424 42.6825C39.4184 42.6863 39.4091 42.6927 39.3961 42.7014C39.3702 42.7188 39.33 42.7455 39.2762 42.7804C39.1687 42.8501 39.0077 42.9519 38.8008 43.0751C38.3864 43.3218 37.7923 43.6522 37.0797 43.9822C35.6361 44.6509 33.79 45.2792 32 45.2792V47.2792C34.21 47.2792 36.3639 46.5179 37.9203 45.797C38.7077 45.4322 39.3636 45.0677 39.8242 44.7934C40.0548 44.6561 40.2376 44.5407 40.3644 44.4584C40.4279 44.4173 40.4774 44.3844 40.5121 44.3611C40.5294 44.3494 40.543 44.3401 40.5528 44.3335C40.5577 44.3301 40.5617 44.3274 40.5646 44.3254C40.5661 44.3243 40.5674 44.3235 40.5683 44.3228C40.5688 44.3224 40.5693 44.3221 40.5697 44.3219C40.5698 44.3218 40.5701 44.3216 40.5702 44.3215C40.5704 44.3214 40.5706 44.3212 40 43.5ZM32 45.2792C30.21 45.2792 28.3639 44.6509 26.9203 43.9822C26.2077 43.6522 25.6136 43.3218 25.1992 43.0751C24.9923 42.9519 24.8313 42.8501 24.7238 42.7804C24.67 42.7455 24.6298 42.7188 24.6039 42.7014C24.5909 42.6927 24.5816 42.6863 24.576 42.6825C24.5732 42.6806 24.5714 42.6793 24.5705 42.6787C24.57 42.6784 24.5698 42.6782 24.5698 42.6782C24.5698 42.6782 24.5699 42.6783 24.57 42.6784C24.5701 42.6784 24.5702 42.6785 24.5703 42.6785C24.5704 42.6786 24.5706 42.6788 24 43.5C23.4294 44.3212 23.4296 44.3214 23.4298 44.3215C23.4299 44.3216 23.4302 44.3218 23.4303 44.3219C23.4307 44.3221 23.4312 44.3224 23.4317 44.3228C23.4326 44.3235 23.4339 44.3243 23.4354 44.3254C23.4383 44.3274 23.4423 44.3301 23.4472 44.3335C23.457 44.3401 23.4706 44.3494 23.4879 44.3611C23.5226 44.3844 23.5721 44.4173 23.6356 44.4584C23.7624 44.5407 23.9452 44.6561 24.1758 44.7934C24.6364 45.0677 25.2923 45.4322 26.0797 45.797C27.6361 46.5179 29.79 47.2792 32 47.2792V45.2792Z" fill="#F0263C"></path>
<path d="M27 47C25.5714 45.6667 23.7857 45 22 45" stroke="#F0263C" stroke-width="2"></path>
<path d="M37 47C38.4286 45.6667 40.2143 45 42 45" stroke="#F0263C" stroke-width="2"></path>
<path d="M28 23H29.5L32 23.5L34.5 23H36L40 24L38 25.5L35 26L33.5 25L32.75 26H32H31.25L30.5 25L29 26L26 25.5L24 24L28 23Z" fill="#F0263C"></path>
<path fill-rule="evenodd" clip-rule="evenodd" d="M25.0455 37.954C25.7393 39.1744 26.7421 40.1907 27.9531 40.9009C29.1641 41.611 30.5406 41.99 31.9445 41.9998C33.3483 42.0095 34.73 41.6497 35.9507 40.9564C37.1714 40.2631 38.1882 39.2608 38.899 38.0501C39.6097 36.8395 39.9894 35.4631 39.9998 34.0593C40.0102 32.6555 39.651 31.2736 38.9583 30.0526L40.6979 29.0657C41.5638 30.5921 42.0127 32.3194 41.9997 34.0741C41.9867 35.8289 41.5122 37.5494 40.6237 39.0627C39.7353 40.576 38.4643 41.8289 36.9384 42.6955C35.4125 43.5621 33.6854 44.0119 31.9306 43.9997C30.1758 43.9875 28.4551 43.5138 26.9414 42.6261C25.4276 41.7384 24.1742 40.468 23.3068 38.9425C22.4395 37.417 21.9889 35.6901 22.0002 33.9353C22.0116 32.1805 22.4845 30.4596 23.3714 28.9455L25.0972 29.9564C24.3876 31.1677 24.0092 32.5444 24.0002 33.9482C23.9911 35.3521 24.3516 36.7336 25.0455 37.954Z" fill="#F0263C"></path>
<path d="M16.6154 30.7692L16 28L18 28.6923L18.4615 30H18.9999L19.3846 31.4615L20 32.1538V38H18V32.8462L16.6154 30.7692Z" fill="#F0263C"></path>
</g>
</g>
<defs>
<clipPath id="clip0_199_10097">
<rect width="64" height="64" rx="32" fill="white"></rect>
</clipPath>
</defs>
</svg>
