<svg width="64" height="64" viewBox="0 0 64 64" fill="none" xmlns="http://www.w3.org/2000/svg">
<g clip-path="url(#clip0_199_10191)">
<path d="M32 64C49.6731 64 64 49.6731 64 32C64 14.3269 49.6731 0 32 0C14.3269 0 0 14.3269 0 32C0 49.6731 14.3269 64 32 64Z" fill="#005B13"/>
<path d="M4 32.0002L32 13.3335L60 32.0002L32 50.6668L4 32.0002Z" fill="#FFD400"/>
<path d="M32 44C38.6274 44 44 38.6274 44 32C44 25.3726 38.6274 20 32 20C25.3726 20 20 25.3726 20 32C20 38.6274 25.3726 44 32 44Z" fill="#231D9A"/>
<path d="M25.3322 27.9998C32.3989 27.9998 38.7989 30.8665 43.4656 35.3998C43.5989 34.9332 43.7322 34.3998 43.7989 33.8665C38.9322 29.3998 32.4656 26.6665 25.3322 26.6665C23.8656 26.6665 22.4656 26.7998 21.1322 26.9998C20.9322 27.4665 20.7322 27.9332 20.5322 28.4665C22.0656 28.1332 23.6656 27.9998 25.3322 27.9998Z" fill="white"/>
</g>
<defs>
<clipPath id="clip0_199_10191">
<rect width="64" height="64" fill="white"/>
</clipPath>
</defs>
</svg>
