<svg width="64" height="64" viewBox="0 0 64 64" fill="none" xmlns="http://www.w3.org/2000/svg">
<g clip-path="url(#clip0_199_9529)">
<path d="M0.733398 25.3333H63.3334C60.2001 10.8667 47.4001 0 32.0001 0C16.6001 0 3.80007 10.8667 0.733398 25.3333Z" fill="#78C9FF"/>
<path d="M63.2667 38.6665H0.733398C3.80007 53.1332 16.6001 63.9998 32.0001 63.9998C47.4001 63.9998 60.2001 53.1332 63.2667 38.6665Z" fill="#78C9FF"/>
<path d="M0.733268 38.6667H63.3333C63.5333 37.8 63.6666 36.9333 63.7999 36H0.266602C0.399935 36.9333 0.533268 37.8 0.733268 38.6667Z" fill="white"/>
<path d="M0.733268 25.3335C0.533268 26.2002 0.399935 27.0668 0.266602 28.0002H63.7333C63.5999 27.0668 63.4666 26.2002 63.2666 25.3335H0.733268Z" fill="white"/>
<path d="M0 32C0 33.3333 0.0666667 34.6667 0.266667 36H63.7333C63.8667 34.6667 64 33.3333 64 32C64 30.6667 63.9333 29.3333 63.7333 28H0.266667C0.0666667 29.3333 0 30.6667 0 32Z" fill="black"/>
</g>
<defs>
<clipPath id="clip0_199_9529">
<rect width="64" height="64" fill="white"/>
</clipPath>
</defs>
</svg>
