<svg width="64" height="64" viewBox="0 0 64 64" fill="none" xmlns="http://www.w3.org/2000/svg">
<g clip-path="url(#clip0_199_9790)">
<path d="M32 64C49.6731 64 64 49.6731 64 32C64 14.3269 49.6731 0 32 0C14.3269 0 0 14.3269 0 32C0 49.6731 14.3269 64 32 64Z" fill="#F0263C"/>
<path d="M13.2868 14.6732L7.95996 20L13.2868 25.3268L18.6136 20L13.2868 14.6732Z" fill="#FFD400"/>
<path d="M22.7143 7.98001L20.0273 10.667L22.7143 13.354L25.4013 10.667L22.7143 7.98001Z" fill="#FFD400"/>
<path d="M22.7143 26.6465L20.0273 29.3335L22.7143 32.0205L25.4013 29.3335L22.7143 26.6465Z" fill="#FFD400"/>
<path d="M28.0473 21.313L25.3604 24L28.0473 26.687L30.7343 24L28.0473 21.313Z" fill="#FFD400"/>
<path d="M28.0473 13.313L25.3604 16L28.0473 18.687L30.7343 16L28.0473 13.313Z" fill="#FFD400"/>
</g>
<defs>
<clipPath id="clip0_199_9790">
<rect width="64" height="64" fill="white"/>
</clipPath>
</defs>
</svg>
