<svg width="64" height="64" viewBox="0 0 64 64" fill="none" xmlns="http://www.w3.org/2000/svg">
<g clip-path="url(#clip0_199_10419)">
<path d="M0 32.0002C0 35.7335 0.666667 39.3335 1.8 42.6668H62.1333C63.3333 39.3335 64 35.7335 64 32.0002C64 28.2668 63.3333 24.6668 62.2 21.3335H1.8C0.666667 24.6668 0 28.2668 0 32.0002Z" fill="#F0263C"/>
<path d="M1.80078 21.3332H62.1341C60.7341 17.3332 58.5341 13.7332 55.8008 10.6665H8.13411C5.40078 13.7332 3.26745 17.3332 1.80078 21.3332Z" fill="white"/>
<path d="M8.13411 53.3332H55.8008C58.5341 50.2665 60.7341 46.6665 62.1341 42.6665H1.80078C3.26745 46.6665 5.40078 50.2665 8.13411 53.3332Z" fill="white"/>
<path d="M8.13379 10.6667H55.8005C50.0005 4.13333 41.4671 0 32.0005 0C22.5338 0 14.0005 4.13333 8.13379 10.6667Z" fill="#231D9A"/>
<path d="M55.8671 53.3335H8.13379C14.0005 59.8668 22.5338 64.0002 32.0005 64.0002C41.4671 64.0002 50.0005 59.8668 55.8671 53.3335Z" fill="#231D9A"/>
<path d="M11.333 40C15.7513 40 19.333 36.4183 19.333 32C19.333 27.5817 15.7513 24 11.333 24C6.91473 24 3.33301 27.5817 3.33301 32C3.33301 36.4183 6.91473 40 11.333 40Z" fill="white"/>
<path d="M11.3333 37.3332C14.2789 37.3332 16.6667 34.9454 16.6667 31.9998C16.6667 29.0543 14.2789 26.6665 11.3333 26.6665C8.38781 26.6665 6 29.0543 6 31.9998C6 34.9454 8.38781 37.3332 11.3333 37.3332Z" fill="#CC9500"/>
<path d="M11.2665 36.0002C12.9999 36.0002 14.5332 34.9335 15.0665 33.3335H7.5332C8.1332 34.8668 9.5332 36.0002 11.2665 36.0002Z" fill="#231D9A"/>
<path d="M11.3996 28C9.66628 28 8.13294 29.0667 7.59961 30.6667H15.1329C14.5329 29.1333 13.1329 28 11.3996 28Z" fill="#78C9FF"/>
<path d="M15.333 32.0665C15.333 31.5998 15.2663 31.1332 15.133 30.6665H7.59967C7.46634 31.0665 7.39967 31.4665 7.33301 31.9332C7.33301 32.3998 7.39967 32.8665 7.53301 33.3332H15.0663C15.2663 32.9332 15.333 32.5332 15.333 32.0665Z" fill="#005B13"/>
</g>
<defs>
<clipPath id="clip0_199_10419">
<rect width="64" height="64" fill="white"/>
</clipPath>
</defs>
</svg>
