<svg width="64" height="64" viewBox="0 0 64 64" fill="none" xmlns="http://www.w3.org/2000/svg">
<g clip-path="url(#clip0_199_9102)">
<path d="M61.4 19.3333L60 20L58.6667 21.3333L56 22.6667H53.3333L52 24L50.6667 25.3333L48 26.6667V29.3333L49.3333 32V33.3333H45.3333L44 32H42.6667L41.3333 33.3333V34.6667L38.6667 36H34.6667L33.3333 37.3333H29.3333L28 38.6667H26.6667L25.3333 37.3333H22.6667L21.3333 36H20L18.6667 34.6667L17.3333 33.3333L16 32L14.6667 29.3333V24L16 22.6667L17.3333 25.3333H18.6667L21.3333 22.6667H24V24H28V20L29.3333 18.6667L30.6667 20L33.3333 21.3333L37.3333 22.6667H44H46.6667L48 21.3333H50.6667L54.6667 20L60 17.3333H60.4667C55.1333 7.06667 44.4 0 32 0C14.3333 0 0 14.3333 0 32C0 49.6667 14.3333 64 32 64C49.6667 64 64 49.6667 64 32C64 27.4667 63.0667 23.2 61.4 19.3333Z" fill="white"/>
<path d="M54.667 20L50.667 21.3334H48.0003L46.667 22.6667H44.0003H37.3337L33.3337 21.3334L30.667 20L29.3337 18.6667L28.0003 20V24H24.0003V22.6667H21.3337L18.667 25.3334H17.3337L16.0003 22.6667L14.667 24V29.3334L16.0003 32L17.3337 33.3334L18.667 34.6667L20.0003 36H21.3337L22.667 37.3334H25.3337L26.667 38.6667H28.0003L29.3337 37.3334H33.3337L34.667 36H38.667L41.3337 34.6667V33.3334L42.667 32H44.0003L45.3337 33.3334H49.3337V32L48.0003 29.3334V26.6667L50.667 25.3334L52.0003 24L53.3337 22.6667H56.0003L58.667 21.3334L60.0003 20L61.4003 19.3334C61.1337 18.6667 60.8003 18 60.467 17.3334H60.0003L54.667 20Z" fill="#CC9500"/>
<path d="M46.6663 37.3334L43.9997 38.6667V40L42.6663 41.3334V38.6667L41.333 40V42.6667L39.9997 44V41.3334L38.6663 42.6667V44L37.333 45.3334V42.6667L35.9997 44V45.4L34.6663 46.6667V44L33.333 45.3334V48H37.333V46.6667H39.9997V45.3334H42.6663L43.9997 44H42.6663V42.6667H45.333L46.6663 41.3334H43.9997L46.6663 40V37.3334Z" fill="#005B13"/>
<path d="M30.6663 48L29.333 49.3333V50.6667L30.6663 49.3333H33.333L34.6663 50.6667V49.3333L33.333 48H30.6663Z" fill="#005B13"/>
<path d="M30.6663 45.3334L29.333 44V46.6667L27.9997 45.4V44L26.6663 42.6667V45.3334L25.333 44V42.6667L23.9997 41.3334V44L22.6663 42.6667V40L21.333 38.6667V41.3334L19.9997 40V38.6667L17.333 37.3334V40L19.9997 41.3334H17.333L18.6663 42.6667H21.333V44H19.9997L21.333 45.3334H23.9997V46.6667H26.6663V48H30.6663V45.3334Z" fill="#005B13"/>
</g>
<defs>
<clipPath id="clip0_199_9102">
<rect width="64" height="64" fill="white"/>
</clipPath>
</defs>
</svg>
