<svg width="64" height="64" viewBox="0 0 64 64" fill="none" xmlns="http://www.w3.org/2000/svg">
<g clip-path="url(#clip0_199_8996)">
<path d="M13.3335 6C6.60013 10.8667 1.8668 18.2 0.466797 26.6667H13.3335V6Z" fill="#F0263C"/>
<path d="M63.5333 26.6667C61 11.5333 47.8667 0 32 0C29.2667 0 26.5333 0.333333 24 1V26.6667H63.5333Z" fill="#F0263C"/>
<path d="M0.466797 37.3335C1.8668 45.8002 6.60013 53.1335 13.3335 58.0002V37.3335H0.466797Z" fill="#F0263C"/>
<path d="M24 63.0002C26.5333 63.6668 29.2667 64.0002 32 64.0002C47.8667 64.0002 61 52.4668 63.5333 37.3335H24V63.0002Z" fill="#F0263C"/>
<path d="M63.8667 29.3333C63.8 28.4667 63.6667 27.5333 63.5333 26.6667H24V1C23.0667 1.2 22.2 1.53333 21.3333 1.8C19.4667 2.46667 17.6667 3.26667 16 4.26667C15.0667 4.8 14.2 5.4 13.3333 6V26.6667H0.466667C0.333333 27.5333 0.2 28.4667 0.133333 29.3333C0.0666667 30.2 0 31.1333 0 32C0 32.8667 0.0666667 33.8 0.133333 34.6667C0.2 35.5333 0.333333 36.4667 0.466667 37.3333H13.3333V58C14.2 58.6 15.0667 59.2 16 59.7333C17.6667 60.7333 19.4667 61.5333 21.3333 62.2C22.2 62.5333 23.0667 62.8 24 63V37.3333H63.5333C63.6667 36.4667 63.8 35.5333 63.8667 34.6667C63.9333 33.8 64 32.8667 64 32C64 31.1333 63.9333 30.2 63.8667 29.3333Z" fill="white"/>
</g>
<defs>
<clipPath id="clip0_199_8996">
<rect width="64" height="64" fill="white"/>
</clipPath>
</defs>
</svg>
