<svg width="64" height="64" viewBox="0 0 64 64" fill="none" xmlns="http://www.w3.org/2000/svg">
<g clip-path="url(#clip0_199_9691)">
<path d="M32 64.0002C49.6731 64.0002 64 49.6734 64 32.0002C64 14.3271 49.6731 0.000244141 32 0.000244141C14.3269 0.000244141 0 14.3271 0 32.0002C0 49.6734 14.3269 64.0002 32 64.0002Z" fill="white"/>
<path d="M1.7998 21.3336C6.1998 8.93358 18.0665 0.000244141 31.9998 0.000244141Z" fill="#F0263C"/>
<path d="M31.9998 64.0003C18.0665 64.0003 6.1998 55.067 1.7998 42.667Z" fill="#005B13"/>
<path d="M1.7998 21.3336H62.1331C57.7998 8.93358 45.9331 0.000244141 31.9998 0.000244141C18.0665 0.000244141 6.1998 8.93358 1.7998 21.3336Z" fill="#F0263C"/>
<path d="M62.1998 42.667H1.7998C6.1998 55.067 18.0665 64.0003 31.9998 64.0003C45.9331 64.0003 57.7998 55.067 62.1998 42.667Z" fill="black"/>
<path d="M35.9333 25.3337L34.6667 26.667L33.3333 25.3337V22.667H30.6667L29.3333 24.0003H30.6667V25.3337L29.2 26.6003L28 25.3337H24C24 25.3337 24 40.0003 24 39.9337L25.3333 38.6003V28.0003H26.6667V37.3337L28 36.0003V28.0003H29.3333V34.667V38.667H28L26.6667 40.0003V41.3337H37.3333V40.0003L36 38.667H34.6667V34.667V28.0003H36V36.0003L37.3333 37.3337V28.0003H38.6667V38.667L40 40.0003V25.3337H35.9333Z" fill="#CC9500"/>
</g>
<defs>
<clipPath id="clip0_199_9691">
<rect width="64" height="64" fill="white"/>
</clipPath>
</defs>
</svg>
