<svg width="64" height="64" viewBox="0 0 64 64" fill="none" xmlns="http://www.w3.org/2000/svg">
<g clip-path="url(#clip0_388_14987)">
<path d="M59.7333 16H4.26667C1.6 20.7333 0 26.2 0 32C0 37.8 1.6 43.2667 4.26667 48H59.6667C62.4 43.2667 63.9333 37.8 63.9333 32C63.9333 26.2 62.4 20.7333 59.7333 16Z" fill="#FFD400"/>
<path d="M32.0004 0C20.1338 0 9.80042 6.46667 4.26709 16H59.6671C54.2004 6.46667 43.8671 0 32.0004 0Z" fill="#F0263C"/>
<path d="M32.0004 64C43.8671 64 54.2004 57.5333 59.7338 48H4.26709C9.80042 57.5333 20.1338 64 32.0004 64Z" fill="#F0263C"/>
</g>
<defs>
<clipPath id="clip0_388_14987">
<rect width="64" height="64" fill="white"/>
</clipPath>
</defs>
</svg>
