<svg width="64" height="64" viewBox="0 0 64 64" fill="none" xmlns="http://www.w3.org/2000/svg">
<g clip-path="url(#clip0_199_9738)">
<path d="M32 64C49.6731 64 64 49.6731 64 32C64 14.3269 49.6731 0 32 0C14.3269 0 0 14.3269 0 32C0 49.6731 14.3269 64 32 64Z" fill="white"/>
<path d="M36 28V0.266667C34.6667 0.0666667 33.3333 0 32 0C30.6667 0 29.3333 0.0666667 28 0.266667V28H0.266667C0.0666667 29.3333 0 30.6667 0 32C0 33.3333 0.0666667 34.6667 0.266667 36H28V63.7333C29.3333 63.8667 30.6667 64 32 64C33.3333 64 34.6667 63.9333 36 63.7333V36H63.7333C63.8667 34.6667 64 33.3333 64 32C64 30.6667 63.9333 29.3333 63.7333 28H36Z" fill="#F0263C"/>
<path d="M21.3337 13.3332L17.3337 14.6665L18.667 10.6665H13.3337L14.667 14.6665L10.667 13.3332V18.6665L14.667 17.3332L13.3337 21.3332H18.667L17.3337 17.3332L21.3337 18.6665V13.3332Z" fill="#F0263C"/>
<path d="M53.3337 13.3332L49.3337 14.6665L50.667 10.6665H45.3337L46.667 14.6665L42.667 13.3332V18.6665L46.667 17.3332L45.3337 21.3332H50.667L49.3337 17.3332L53.3337 18.6665V13.3332Z" fill="#F0263C"/>
<path d="M21.3337 45.3332L17.3337 46.6665L18.667 42.6665H13.3337L14.667 46.6665L10.667 45.3332V50.6665L14.667 49.3332L13.3337 53.3332H18.667L17.3337 49.3332L21.3337 50.6665V45.3332Z" fill="#F0263C"/>
<path d="M53.3337 45.3332L49.3337 46.6665L50.667 42.6665H45.3337L46.667 46.6665L42.667 45.3332V50.6665L46.667 49.3332L45.3337 53.3332H50.667L49.3337 49.3332L53.3337 50.6665V45.3332Z" fill="#F0263C"/>
</g>
<defs>
<clipPath id="clip0_199_9738">
<rect width="64" height="64" fill="white"/>
</clipPath>
</defs>
</svg>
