<svg width="64" height="64" viewBox="0 0 64 64" fill="none" xmlns="http://www.w3.org/2000/svg">
<g clip-path="url(#clip0_199_9215)">
<path d="M62.1998 42.6667H1.7998C6.1998 55.0667 18.0665 64 31.9998 64C45.9331 64 57.7998 55.0667 62.1998 42.6667Z" fill="#231D9A"/>
<path d="M1.7998 21.3333H62.1331C57.7998 8.93333 45.9331 0 31.9998 0C18.0665 0 6.1998 8.93333 1.7998 21.3333Z" fill="#F0263C"/>
<path d="M0 32C0 35.7333 0.666667 39.3333 1.8 42.6666H62.1333C63.3333 39.3333 64 35.7333 64 32C64 28.2666 63.3333 24.6666 62.2 21.3333H1.8C0.666667 24.6666 0 28.2666 0 32Z" fill="white"/>
<path d="M34.6673 32H29.334V37.3333H34.6673V32Z" fill="#F0263C"/>
<path d="M34.6673 26.6666H29.334V32H34.6673V26.6666Z" fill="white"/>
<path d="M34.6673 21.3333H29.334V26.6666H34.6673V21.3333Z" fill="#F0263C"/>
<path d="M40.0003 26.6666H34.667V32H40.0003V26.6666Z" fill="#F0263C"/>
<path d="M40.0003 21.3333H34.667V26.6666H40.0003V21.3333Z" fill="white"/>
<path d="M24.0003 26.6666H18.667V32H24.0003V26.6666Z" fill="white"/>
<path d="M24.0003 21.3333H18.667V26.6666H24.0003V21.3333Z" fill="#F0263C"/>
<path d="M29.3333 26.6666H24V32H29.3333V26.6666Z" fill="#F0263C"/>
<path d="M29.3333 21.3333H24V26.6666H29.3333V21.3333Z" fill="white"/>
<path d="M45.3333 26.6666H40V32H45.3333V26.6666Z" fill="white"/>
<path d="M45.3333 21.3333H40V26.6666H45.3333V21.3333Z" fill="#F0263C"/>
<path d="M18.9337 32H18.667V34.6667C18.667 35.6 18.7337 36.4667 18.9337 37.3333H24.0003V32H18.9337Z" fill="#F0263C"/>
<path d="M29.3333 37.3333H24V42.6666H29.3333V37.3333Z" fill="#F0263C"/>
<path d="M40.0003 37.3333H34.667V42.6666H40.0003V37.3333Z" fill="#F0263C"/>
<path d="M45.0667 32H40V37.3333H45.0667C45.2667 36.4667 45.3333 35.6 45.3333 34.6667V32H45.0667Z" fill="#F0263C"/>
<path d="M34.6673 42.6666H29.334V47.7333C30.2007 47.9333 31.0673 48 32.0007 48C32.934 48 33.8007 47.9333 34.6673 47.7333V42.6666Z" fill="#F0263C"/>
<path d="M24.0007 45.3333V42.6666H21.334C22.134 43.6666 23.0007 44.5333 24.0007 45.3333Z" fill="#F0263C"/>
<path d="M24 45.3333C25.5333 46.5333 27.3333 47.3333 29.3333 47.7333V42.6666H24V45.3333Z" fill="white"/>
<path d="M34.667 47.7333C36.667 47.3333 38.467 46.4666 40.0003 45.3333V42.6666H34.667V47.7333Z" fill="white"/>
<path d="M40 45.3333C41 44.6 41.8667 43.6666 42.6667 42.6666H40V45.3333Z" fill="#F0263C"/>
<path d="M24.0003 21.3333H18.667V13.3333L21.3337 12L24.0003 13.3333V21.3333Z" fill="#78C9FF"/>
<path d="M29.3333 21.3333H24V13.3333L26.6667 12L29.3333 13.3333V21.3333Z" fill="#231D9A"/>
<path d="M34.6663 21.3333H29.333V13.3333L31.9997 12L34.6663 13.3333V21.3333Z" fill="#78C9FF"/>
<path d="M45.3333 21.3333H40V13.3333L42.6667 12L45.3333 13.3333V21.3333Z" fill="#78C9FF"/>
<path d="M40.0003 21.3333H34.667V13.3333L37.3337 12L40.0003 13.3333V21.3333Z" fill="#231D9A"/>
<path d="M32.0003 18.6667C27.467 18.6667 22.6003 19.6 18.667 21.3334H45.3337C41.4003 19.6 36.5337 18.6667 32.0003 18.6667Z" fill="#F0263C"/>
</g>
<defs>
<clipPath id="clip0_199_9215">
<rect width="64" height="64" fill="white"/>
</clipPath>
</defs>
</svg>
