<svg width="64" height="64" viewBox="0 0 64 64" fill="none" xmlns="http://www.w3.org/2000/svg">
<g clip-path="url(#clip0_203_10638)">
<path d="M32.0001 0C24.6668 0 17.8668 2.46667 12.4668 6.66667H51.5335C46.1335 2.46667 39.3335 0 32.0001 0Z" fill="white"/>
<path d="M32.0001 64.0002C39.3335 64.0002 46.1335 61.5335 51.5335 57.3335H12.4668C17.8668 61.5335 24.6668 64.0002 32.0001 64.0002Z" fill="white"/>
<path d="M0 32.0002C0 39.0002 2.26667 45.4002 6 50.6668H58C61.8 45.4002 64 39.0002 64 32.0002C64 25.0002 61.7333 18.6002 58 13.3335H6C2.26667 18.6002 0 25.0002 0 32.0002Z" fill="white"/>
<path d="M51.5333 6.6665H12.4667C10 8.53317 7.8 10.7998 6 13.3332H58C56.2 10.7998 54 8.53317 51.5333 6.6665Z" fill="#231D9A"/>
<path d="M12.4667 57.3332H51.5333C54 55.4665 56.1333 53.1998 58 50.6665H6C7.8 53.1998 10 55.4665 12.4667 57.3332Z" fill="#231D9A"/>
<path d="M41.1333 32.0002L45.7333 24.0002H36.5333L31.9999 16.2002L27.4666 24.0002H18.2666L22.8666 32.0002L18.2666 40.0002H27.4666L31.9999 47.8002L36.5333 40.0002H45.7333L41.1333 32.0002ZM43.3999 25.3335L40.3333 30.6669L37.2666 25.3335H43.3999ZM39.5999 32.0002L35.7333 38.6669H28.2666L24.3999 32.0002L28.2666 25.3335H35.7333L39.5999 32.0002ZM31.9999 18.8669L34.9999 24.0002H29.0666L31.9999 18.8669ZM20.5999 25.3335H26.7333L23.6666 30.6669L20.5999 25.3335ZM20.5999 38.6669L23.6666 33.3335L26.7333 38.6669H20.5999ZM31.9999 45.1335L28.9999 40.0002H34.9333L31.9999 45.1335ZM40.3333 33.3335L43.3999 38.6669H37.2666L40.3333 33.3335Z" fill="#231D9A"/>
</g>
<defs>
<clipPath id="clip0_203_10638">
<rect width="64" height="64" fill="white"/>
</clipPath>
</defs>
</svg>
