<svg width="64" height="64" viewBox="0 0 64 64" fill="none" xmlns="http://www.w3.org/2000/svg">
<g clip-path="url(#clip0_199_9035)">
<path d="M21.3333 62.2001V1.80005C8.93333 6.20005 0 18.0667 0 32C0 45.9334 8.93333 57.8001 21.3333 62.2001Z" fill="#005B13"/>
<path d="M42.6663 1.8C39.333 0.666667 35.733 0 31.9997 0C28.2663 0 24.6663 0.666667 21.333 1.8V62.1333C24.6663 63.3333 28.2663 64 31.9997 64C35.733 64 39.333 63.3333 42.6663 62.2V1.8Z" fill="white"/>
<path d="M42.667 1.80005V62.1334C55.067 57.8 64.0003 45.9334 64.0003 32C64.0003 18.0667 55.067 6.20005 42.667 1.80005Z" fill="#F0263C"/>
</g>
<defs>
<clipPath id="clip0_199_9035">
<rect width="64" height="64" fill="white"/>
</clipPath>
</defs>
</svg>
