<svg width="64" height="64" viewBox="0 0 64 64" fill="none" xmlns="http://www.w3.org/2000/svg">
<g clip-path="url(#clip0_199_9669)">
<path d="M32 64C49.6731 64 64 49.6731 64 32C64 14.3269 49.6731 0 32 0C14.3269 0 0 14.3269 0 32C0 49.6731 14.3269 64 32 64Z" fill="white"/>
<path d="M0 32.0001C0 35.2667 0.466667 38.4001 1.4 41.3334H62.6C63.4667 38.4001 64 35.2667 64 32.0001C64 28.7334 63.5333 25.6001 62.6 22.6667H1.4C0.466667 25.6001 0 28.7334 0 32.0001Z" fill="#F0263C"/>
<path d="M31.9997 0C18.5997 0 7.06634 8.26667 2.33301 20H61.6663C56.933 8.26667 45.3997 0 31.9997 0Z" fill="black"/>
<path d="M31.9997 64C45.3997 64 56.933 55.7333 61.6663 44H2.33301C7.06634 55.7333 18.5997 64 31.9997 64Z" fill="#005B13"/>
<path d="M27.2671 17.6001C27.2671 17.6001 28.0003 16.0001 27.3337 14.6667C26.6671 13.3334 24.0004 10.6667 24.0004 10.6667C24.0004 10.6667 23.3337 14.6667 24.0004 16.0001C24.6671 17.3334 26.0671 18.2001 26.0671 18.2001L27.3337 21.6667L28.2671 20.2667L27.2671 17.6001Z" fill="white"/>
<path d="M36.7036 17.6001C36.7036 17.6001 35.9704 16.0001 36.637 14.6667C37.3036 13.3334 39.9703 10.6667 39.9703 10.6667C39.9703 10.6667 40.637 14.6667 39.9703 16.0001C39.3036 17.3334 37.9036 18.2001 37.9036 18.2001L36.637 21.6667L35.7036 20.2667L36.7036 17.6001Z" fill="white"/>
<path d="M38.5329 52.0003H39.9329L36.4663 42.6003L35.5996 44.0003L38.5329 52.0003Z" fill="white"/>
<path d="M24.0664 52.0003H25.4664L28.3997 44.0003L27.5331 42.6003L24.0664 52.0003Z" fill="white"/>
<path d="M32.0003 14.6667C29.7627 14.6667 27.894 20.8263 26.667 22.6667V41.3334C26.667 41.3334 29.467 49.3334 32.067 49.3334C34.667 49.3334 37.3337 41.3334 37.3337 41.3334V22.6667C36.1067 20.8263 34.238 14.6667 32.0003 14.6667ZM29.3337 20.0001H30.667V28.0001H29.3337V20.0001ZM29.3337 44.0001V36.0001H30.667V44.0001H29.3337ZM29.3337 32.0001C29.3337 30.5334 30.5337 29.3334 32.0003 29.3334C33.467 29.3334 34.667 30.5334 34.667 32.0001C34.667 33.4667 33.467 34.6667 32.0003 34.6667C30.5337 34.6667 29.3337 33.4667 29.3337 32.0001ZM34.667 44.0001H33.3337V36.0001H34.667V44.0001ZM34.667 28.0001H33.3337V20.0001H34.667V28.0001Z" fill="#F0263C"/>
<path d="M24 32.0001C24 36.0001 26.6667 41.3334 26.6667 41.3334C26.6667 41.3334 27.3333 35.3334 27.3333 32.0001C27.3333 28.6667 26.6667 22.6667 26.6667 22.6667C26.6667 22.6667 24 28.0001 24 32.0001Z" fill="black"/>
<path d="M40 32.0002C40 28.0002 37.3333 22.6668 37.3333 22.6668C37.3333 22.6668 36.6667 28.0002 36.6667 32.0002C36.6667 36.0002 37.3333 41.3335 37.3333 41.3335C37.3333 41.3335 40 36.0002 40 32.0002Z" fill="black"/>
<path d="M31.9997 34.6668C33.4724 34.6668 34.6663 33.4729 34.6663 32.0002C34.6663 30.5274 33.4724 29.3335 31.9997 29.3335C30.5269 29.3335 29.333 30.5274 29.333 32.0002C29.333 33.4729 30.5269 34.6668 31.9997 34.6668Z" fill="white"/>
<path d="M34.6673 20H33.334V28H34.6673V20Z" fill="white"/>
<path d="M30.6663 20H29.333V28H30.6663V20Z" fill="white"/>
<path d="M34.6673 36H33.334V44H34.6673V36Z" fill="white"/>
<path d="M30.6663 36H29.333V44H30.6663V36Z" fill="white"/>
</g>
<defs>
<clipPath id="clip0_199_9669">
<rect width="64" height="64" fill="white"/>
</clipPath>
</defs>
</svg>
