<svg width="64" height="64" viewBox="0 0 64 64" fill="none" xmlns="http://www.w3.org/2000/svg">
<g clip-path="url(#clip0_199_9818)">
<path d="M32 64C49.6731 64 64 49.6731 64 32C64 14.3269 49.6731 0 32 0C14.3269 0 0 14.3269 0 32C0 49.6731 14.3269 64 32 64Z" fill="white"/>
<path d="M40 24C35.6 24 32 27.6 32 32C32 36.4 28.4 40 24 40C19.6 40 16 36.4 16 32C16 40.8667 23.1333 48 32 48C40.8667 48 48 40.8667 48 32C48 27.6 44.4 24 40 24Z" fill="#231D9A"/>
<path d="M32 16C23.1333 16 16 23.1333 16 32C16 36.4 19.6 40 24 40C28.4 40 32 36.4 32 32C32 27.6 35.6 24 40 24C44.4 24 48 27.6 48 32C48 23.1333 40.8667 16 32 16Z" fill="#F0263C"/>
<path d="M9.32773 45.3395L8.00781 46.6594L17.3415 55.9931L18.6615 54.6732L9.32773 45.3395Z" fill="black"/>
<path d="M15.1353 46.9999L11.3353 43.3333L10.002 44.6666L13.802 48.3333L15.1353 46.9999Z" fill="black"/>
<path d="M15.668 50.2L19.3346 54L20.668 52.6667L17.0013 48.8667L15.668 50.2Z" fill="black"/>
<path d="M13.3277 41.3397L12.0078 42.6597L21.3415 51.9934L22.6615 50.6735L13.3277 41.3397Z" fill="black"/>
<path d="M46.8691 19.0001L50.6691 22.6667L52.0025 21.3334L48.2025 17.6667L46.8691 19.0001Z" fill="black"/>
<path d="M46.3359 15.8L42.6693 12L41.3359 13.3333L45.0026 17.1333L46.3359 15.8Z" fill="black"/>
<path d="M50.8691 15.0001L54.6691 18.6667L56.0025 17.3334L52.2025 13.6667L50.8691 15.0001Z" fill="black"/>
<path d="M50.3359 11.8L46.6693 8L45.3359 9.33333L49.0026 13.1333L50.3359 11.8Z" fill="black"/>
<path d="M44.6617 10.007L43.3418 11.3269L52.6755 20.6606L53.9954 19.3407L44.6617 10.007Z" fill="black"/>
<path d="M17.3415 8.00686L8.00781 17.3406L9.32773 18.6605L18.6615 9.32678L17.3415 8.00686Z" fill="black"/>
<path d="M21.3415 12.0069L12.0078 21.3406L13.3277 22.6605L22.6615 13.3268L21.3415 12.0069Z" fill="black"/>
<path d="M19.3415 10.0069L10.0078 19.3406L11.3277 20.6605L20.6615 11.3268L19.3415 10.0069Z" fill="black"/>
<path d="M46.335 48.2L42.6683 52L41.335 50.6667L45.0016 46.8667L46.335 48.2Z" fill="black"/>
<path d="M46.8682 45.0002L50.6682 41.3335L52.0015 42.6668L48.2015 46.3335L46.8682 45.0002Z" fill="black"/>
<path d="M48.335 50.2L44.6683 54L43.335 52.6667L47.0016 48.8667L48.335 50.2Z" fill="black"/>
<path d="M48.8682 47.0002L52.6682 43.3335L54.0015 44.6668L50.2015 48.3335L48.8682 47.0002Z" fill="black"/>
<path d="M50.335 52.2L46.6683 56L45.335 54.6667L49.0016 50.8667L50.335 52.2Z" fill="black"/>
<path d="M50.8682 49.0002L54.6682 45.3335L56.0015 46.6668L52.2015 50.3335L50.8682 49.0002Z" fill="black"/>
</g>
<defs>
<clipPath id="clip0_199_9818">
<rect width="64" height="64" fill="white"/>
</clipPath>
</defs>
</svg>
