<svg width="64" height="64" viewBox="0 0 64 64" fill="none" xmlns="http://www.w3.org/2000/svg">
<g clip-path="url(#clip0_199_9931)">
<clipPath id="mask0_199_9931" style="mask-type:alpha" maskUnits="userSpaceOnUse" x="0" y="0" width="64" height="64"><circle cx="32" cy="32" r="32" fill="white"></circle></clipPath>
<g clip-path="url(#mask0_199_9931)">
<rect width="64" height="64" fill="#FFD400"></rect>
<rect x="28" y="6" width="42" height="52" fill="#960A3C"></rect>
<rect x="9" y="6" width="13" height="52" fill="#FF7700"></rect>
<rect x="-3" y="6" width="12" height="52" fill="#005B13"></rect>
<path d="M58.7676 24.4008V25.5649L54.2519 23.2367H50.8652L49.7363 24.4008V26.729L51.9941 27.8931H56.5097L57.6387 29.0573H54.2519H47.4785V26.729L48.6074 23.2367H45.2207H42.9629L40.7051 24.4008H38.4473V25.5649L39.5762 26.729L41.834 27.8931H38.4473V29.0573L40.7051 30.2214H41.834L40.7051 31.3855L39.5762 32.5496V34.8778L38.4473 33.7137V31.3855H37.3184V24.4008V20.9084L36.1895 23.2367V31.3855H35.0605L33.9316 32.5496V33.7137H36.1895V36.0419V38.3702L35.0605 39.5343L36.1895 40.6984L37.3184 39.5343V38.3702V36.0419L38.4473 37.2061L39.5762 38.3702H40.7051L41.834 37.2061L42.9629 38.3702V40.6984L41.834 41.8625H40.7051V43.0266H44.0918L45.2207 41.8625V40.6984L46.3496 39.5343L45.2207 38.3702L46.3496 37.2061L49.7363 36.0419H50.8652V37.2061L53.123 39.5343V40.6984L51.9941 41.8625H50.8652V43.0266H54.2519H57.6387V41.8625V40.6984L58.7676 39.5343L57.6387 38.3702V37.2061L58.7676 34.8778V31.3855V30.2214V27.8931L57.6387 26.729H54.2519H53.123L51.9941 25.5649V24.4008H53.123L54.2519 25.5649H56.5097L58.7676 26.729H59.8965V24.4008H58.7676ZM56.5097 40.6984L55.3808 41.8625H54.2519V40.6984L55.3808 39.5343L54.2519 38.3702H55.3808L56.5097 39.5343V40.6984Z" fill="#FFD400"></path>
<path d="M34.6472 14.1962L33.0981 12.6472H31.5491L30 11.0981V9.54906L31.5491 8H33.0981L34.6472 9.54906V14.1962Z" fill="#FFD400"></path>
<path d="M34.6472 50L33.0981 51.5491H31.5491L30 53.0981V54.6472L31.5491 56.1962H33.0981L34.6472 54.5697V50Z" fill="#FFD400"></path>
</g>
</g>
<defs>
<clipPath id="clip0_199_9931">
<rect width="64" height="64" fill="white"></rect>
</clipPath>
</defs>
</svg>
