<svg width="64" height="64" viewBox="0 0 64 64" fill="none" xmlns="http://www.w3.org/2000/svg">
<g clip-path="url(#clip0_503_661)">
<path d="M0 31.9999C0 35.7333 0.666667 39.3333 1.8 42.6666H62.1333C63.3333 39.3333 64 35.7333 64 31.9999C64 28.2666 63.3333 24.6666 62.2 21.3333H1.8C0.666667 24.6666 0 28.2666 0 31.9999Z" fill="#005B13"/>
<path d="M1.80078 21.3333H62.1341C57.8008 8.93333 45.9341 0 32.0008 0C18.0674 0 6.20078 8.93333 1.80078 21.3333Z" fill="#FFD400"/>
<path d="M62.2008 42.6667H1.80078C6.20078 55.0667 18.0674 64.0001 32.0008 64.0001C45.9341 64.0001 57.8008 55.0667 62.2008 42.6667Z" fill="#F0263C"/>
</g>
<defs>
<clipPath id="clip0_503_661">
<rect width="64" height="64" fill="white"/>
</clipPath>
</defs>
</svg>
