<svg width="64" height="64" viewBox="0 0 64 64" fill="none" xmlns="http://www.w3.org/2000/svg">
<g clip-path="url(#clip0_199_9170)">
<path d="M32.0001 64C47.8668 64 61.0001 52.4667 63.5335 37.3334H0.466797C3.00013 52.4667 16.1335 64 32.0001 64Z" fill="#F0263C"/>
<path d="M32.0001 0C16.1335 0 3.00013 11.5333 0.466797 26.6667H63.5335C61.0001 11.5333 47.8668 0 32.0001 0Z" fill="#F0263C"/>
<path d="M63.5333 26.6666H0.466667C0.133333 28.4 0 30.2 0 32C0 33.8 0.133333 35.6 0.466667 37.3333H63.5333C63.8 35.6 64 33.8 64 32C64 30.2 63.8667 28.4 63.5333 26.6666Z" fill="white"/>
</g>
<defs>
<clipPath id="clip0_199_9170">
<rect width="64" height="64" fill="white"/>
</clipPath>
</defs>
</svg>
