<svg width="64" height="64" viewBox="0 0 64 64" fill="none" xmlns="http://www.w3.org/2000/svg">
<g clip-path="url(#clip0_199_10294)">
<path d="M21.3333 62.2003V1.80029C8.93333 6.20029 0 18.067 0 32.0003C0 45.9336 8.93333 57.8003 21.3333 62.2003Z" fill="#005B13"/>
<path d="M42.6663 1.8C39.333 0.666667 35.733 0 31.9997 0C28.2663 0 24.6663 0.666667 21.333 1.8V62.1333C24.6663 63.3333 28.2663 64 31.9997 64C35.733 64 39.333 63.3333 42.6663 62.2V1.8Z" fill="white"/>
<path d="M42.667 1.80029V62.1336C55.067 57.8003 64.0003 45.9336 64.0003 32.0003C64.0003 18.067 55.067 6.20029 42.667 1.80029Z" fill="#F0263C"/>
<path d="M29.3333 28V29.3333L30.6667 30.6667L29.3333 33.3333H32H33.3333V34.6667H36L34.6667 32H36L37.3333 34.6667C38.1333 33.5333 38.6667 32.2 38.6667 30.6667C38.6667 27 35.6667 24 32 24V26.6667L30.6 25.3333H29.3333L28 26.6667H29.3333V28Z" fill="#CC9500"/>
<path d="M28 36L29.3333 38.6667H30.6667V37.3333L28 36Z" fill="#78C9FF"/>
<path d="M33.333 38.6667H34.6663L35.9997 36L33.333 37.3333V38.6667Z" fill="#78C9FF"/>
<path d="M31.9997 34.6665H25.333L26.6663 35.9998H27.9997H35.9997H37.333L38.6663 34.6665H35.9997H33.333H31.9997Z" fill="#005B13"/>
<path d="M33.3337 37.3335H30.667V38.6668H33.3337V37.3335Z" fill="#FFD400"/>
<path d="M33.3333 33.3335H32V34.6668H33.3333V33.3335Z" fill="#FFD400"/>
<path d="M28 33.3333H29.3333V32L28 33.3333Z" fill="#FFD400"/>
<path d="M26.6667 33.3335H28L29.3333 32.0002L29.0667 30.7335L28 30.6668V29.3335H29.3333V28.0002L28 26.6668L26.6667 25.3335V26.6668L28 28.0002L26.6667 29.3335V30.6668L28 32.0002H26.6667H25.3333V29.3335H24V30.6668L25.3333 33.3335H26.6667Z" fill="#005B13"/>
<path d="M39.8665 33.3335C39.1998 37.1335 35.9331 40.0002 31.9998 40.0002C28.0665 40.0002 24.7331 37.1335 24.1331 33.3335H22.7998C23.4665 37.8668 27.3331 41.3335 31.9998 41.3335C36.6665 41.3335 40.5998 37.8668 41.1998 33.3335H39.8665Z" fill="#005B13"/>
</g>
<defs>
<clipPath id="clip0_199_10294">
<rect width="64" height="64" fill="white"/>
</clipPath>
</defs>
</svg>
