<svg width="64" height="64" viewBox="0 0 64 64" fill="none" xmlns="http://www.w3.org/2000/svg">
<g clip-path="url(#clip0_199_9973)">
<path d="M49.6667 5.33333C44.6 1.93333 38.5333 0 32 0V5.33333H49.6667Z" fill="#F0263C"/>
<path d="M49.6667 5.33325H32V10.6666H55.8667C54 8.66659 51.9333 6.86659 49.6667 5.33325Z" fill="white"/>
<path d="M32 16.0001H59.7333C58.6 14.0667 57.3333 12.3334 55.8667 10.6667H32V16.0001Z" fill="#F0263C"/>
<path d="M32 21.3333H62.2C61.5333 19.4667 60.7333 17.6667 59.7333 16H32V21.3333Z" fill="white"/>
<path d="M32 26.6666H63.5333C63.2 24.7999 62.7333 23.0666 62.1333 21.3333H32V26.6666Z" fill="#F0263C"/>
<path d="M32 32.0001H64C64 30.2001 63.8667 28.4001 63.5333 26.6667H32V32.0001Z" fill="white"/>
<path d="M0 32C0 33.8 0.133333 35.6 0.466667 37.3333H63.5333C63.8 35.6 64 33.8 64 32H32H0Z" fill="#F0263C"/>
<path d="M1.80013 42.6666H62.1335C62.7335 40.9333 63.2001 39.1999 63.5335 37.3333H0.466797C0.733464 39.1999 1.20013 40.9333 1.80013 42.6666Z" fill="white"/>
<path d="M4.26745 48.0001H59.6674C60.6674 46.3334 61.4674 44.5334 62.1341 42.6667H1.80078C2.46745 44.5334 3.33411 46.3334 4.26745 48.0001Z" fill="#F0263C"/>
<path d="M8.13327 53.3333H55.7999C57.2666 51.6667 58.5333 49.9333 59.6666 48H4.2666C5.39993 49.9333 6.6666 51.6667 8.13327 53.3333Z" fill="white"/>
<path d="M14.3338 58.6666H49.7338C52.0005 57.1333 54.0671 55.3333 55.8671 53.3333H8.13379C10.0005 55.3333 12.0671 57.1333 14.3338 58.6666Z" fill="#F0263C"/>
<path d="M14.333 58.6667C19.3997 62.0667 25.4663 64.0001 31.9997 64.0001C38.533 64.0001 44.5997 62.0667 49.6663 58.6667H14.333Z" fill="white"/>
<path d="M14.3333 5.33333C12.0667 6.86667 10 8.66667 8.2 10.6667C6.73333 12.3333 5.46667 14.0667 4.33333 16C3.33333 17.6667 2.53333 19.4667 1.86667 21.3333C1.26667 23.0667 0.8 24.8 0.466667 26.6667C0.133333 28.4 0 30.2 0 32H32V26.6667V21.3333V16V10.6667V5.33333V0C25.4667 0 19.4 1.93333 14.3333 5.33333Z" fill="#231D9A"/>
<path d="M24.0003 23.9999C26.9458 23.9999 29.3337 21.6121 29.3337 18.6666C29.3337 15.7211 26.9458 13.3333 24.0003 13.3333C21.0548 13.3333 18.667 15.7211 18.667 18.6666C18.667 21.6121 21.0548 23.9999 24.0003 23.9999Z" fill="#FFD400"/>
<path d="M10.667 18.6666C10.667 14.2666 14.267 10.6666 18.667 10.6666C19.7337 10.6666 20.7337 10.8666 21.667 11.2666C20.067 10.0666 18.1337 9.33325 16.0003 9.33325C10.867 9.33325 6.66699 13.5333 6.66699 18.6666C6.66699 23.7999 10.867 27.9999 16.0003 27.9999C18.1337 27.9999 20.067 27.2666 21.667 26.0666C20.7337 26.4666 19.7337 26.6666 18.667 26.6666C14.267 26.6666 10.667 23.0666 10.667 18.6666Z" fill="#FFD400"/>
</g>
<defs>
<clipPath id="clip0_199_9973">
<rect width="64" height="64" fill="white"/>
</clipPath>
</defs>
</svg>
