<svg width="64" height="64" viewBox="0 0 64 64" fill="none" xmlns="http://www.w3.org/2000/svg">
<g clip-path="url(#clip0_199_9040)">
<path d="M13.3335 6C6.60013 10.8667 1.8668 18.2 0.466797 26.6667H13.3335V6Z" fill="#F0263C"/>
<path d="M63.5333 26.6667C61 11.5333 47.8667 0 32 0C29.2667 0 26.5333 0.333333 24 1V26.6667H63.5333Z" fill="#F0263C"/>
<path d="M0.466797 37.3333C1.8668 45.7999 6.60013 53.1333 13.3335 57.9999V37.3333H0.466797Z" fill="#F0263C"/>
<path d="M24 62.9999C26.5333 63.6666 29.2667 63.9999 32 63.9999C47.8667 63.9999 61 52.4666 63.5333 37.3333H24V62.9999Z" fill="#F0263C"/>
<path d="M21.333 34.6667V62.2001C22.1997 62.5334 23.0663 62.8001 23.9997 63.0001V37.3334H63.533C63.6663 36.4667 63.7997 35.5334 63.8663 34.6667H21.333Z" fill="white"/>
<path d="M16.0005 34.6667H0.133789C0.200456 35.5334 0.333789 36.4667 0.467122 37.3334H13.3338V58.0001C14.2005 58.6001 15.0671 59.2001 16.0005 59.7334V34.6667Z" fill="white"/>
<path d="M21.333 29.3333H63.8663C63.7997 28.4667 63.6663 27.5333 63.533 26.6667H23.9997V1C23.0663 1.2 22.1997 1.53333 21.333 1.8V29.3333Z" fill="white"/>
<path d="M16.0005 29.3335V4.26685C15.0671 4.80018 14.2005 5.40018 13.3338 6.00018V26.6668H0.467122C0.333789 27.5335 0.200456 28.4668 0.133789 29.3335H16.0005Z" fill="white"/>
<path d="M21.3333 29.3334V1.80005C19.4667 2.46672 17.6667 3.26672 16 4.26672V29.3334H0.133333C0.0666667 30.2 0 31.1334 0 32C0 32.8667 0.0666667 33.8 0.133333 34.6667H16V59.7334C17.6667 60.7334 19.4667 61.5334 21.3333 62.2001V34.6667H63.8667C63.9333 33.8 64 32.8667 64 32C64 31.1334 63.9333 30.2 63.8667 29.3334H21.3333Z" fill="#231D9A"/>
</g>
<defs>
<clipPath id="clip0_199_9040">
<rect width="64" height="64" fill="white"/>
</clipPath>
</defs>
</svg>
