<svg width="64" height="64" viewBox="0 0 64 64" fill="none" xmlns="http://www.w3.org/2000/svg">
<g clip-path="url(#clip0_199_10134)">
<path d="M32 64C49.6731 64 64 49.6731 64 32C64 14.3269 49.6731 0 32 0C14.3269 0 0 14.3269 0 32C0 49.6731 14.3269 64 32 64Z" fill="white"/>
<path d="M18.6667 31.9997H48L18.8667 2.86633C17.8667 3.333 16.9333 3.79967 16 4.333C15.0667 4.86633 14.2 5.46633 13.3333 6.06633C5.26667 11.7997 0 21.2663 0 31.9997C0 42.733 5.26667 52.1997 13.3333 57.9997C14.2 58.5997 15.0667 59.1997 16 59.733C17.0667 60.333 18.1333 60.8663 19.2 61.333C23.1333 63.0663 27.4667 63.9997 32 63.9997C36.5333 63.9997 40.8667 63.0663 44.8 61.333C45.5333 60.9997 46.2667 60.6663 46.9333 60.2663L18.6667 31.9997Z" fill="#F0263C"/>
<path d="M54.467 34.6664L21.5337 1.73303C20.6003 2.06637 19.7337 2.3997 18.867 2.7997L48.0003 31.9997H18.667L46.9337 60.2664C47.7337 59.8664 48.5337 59.3997 49.3337 58.8664L25.1337 34.6664H54.467Z" fill="#231D9A"/>
<path d="M23.7333 16.6667C23.1333 18.9333 21.6 20.8 19.5333 21.8C19.8667 21.2667 20 20.6667 20 20C20 17.8 18.2 16 16 16C13.8 16 12 17.8 12 20C12 20.6667 12.1333 21.2667 12.4667 21.8C10.4 20.8 8.86667 18.9333 8.26667 16.6667C8.13333 17.3333 8 18 8 18.6667C8 23.0667 11.6 26.6667 16 26.6667C20.4 26.6667 24 23.0667 24 18.6667C24 18 23.9333 17.3333 23.7333 16.6667Z" fill="white"/>
<path d="M16.333 38.6667L17.8892 41.3911L20.8325 40.3044L20.2734 43.3917L23.2267 44.4512L20.8139 46.4568L22.3952 49.1667L19.2577 49.1523L18.7271 52.2446L16.333 50.2167L13.9389 52.2446L13.4083 49.1523L10.2708 49.1667L11.8521 46.4568L9.43935 44.4512L12.3926 43.3917L11.8335 40.3044L14.7768 41.3911L16.333 38.6667Z" fill="white"/>
</g>
<defs>
<clipPath id="clip0_199_10134">
<rect width="64" height="64" fill="white"/>
</clipPath>
</defs>
</svg>
