<svg width="64" height="64" viewBox="0 0 64 64" fill="none" xmlns="http://www.w3.org/2000/svg">
<g clip-path="url(#clip0_197_7181)">
<clipPath id="mask0_197_7181" style="mask-type:alpha" maskUnits="userSpaceOnUse" x="0" y="0" width="64" height="64"><path d="M32 64C49.6731 64 64 49.6731 64 32C64 14.3269 49.6731 0 32 0C14.3269 0 0 14.3269 0 32C0 49.6731 14.3269 64 32 64Z" fill="#231D9A"></path></clipPath>
<g clip-path="url(#mask0_197_7181)">
<rect width="64" height="64" fill="#231D9A"></rect>
<path d="M37.0973 23.4118L36.8616 23.6475L37.0973 23.8832L39.411 26.1969L39.6467 26.4326L39.8824 26.1969L42.1961 23.8832L42.4318 23.6475L42.1961 23.4118L39.8824 21.098L39.6467 20.8623L39.411 21.098L37.0973 23.4118Z" fill="#F0263C" stroke="white" stroke-width="0.666667"></path>
<path d="M45.0973 12.7448L44.8616 12.9805L45.0973 13.2162L47.411 15.5299L47.6467 15.7656L47.8824 15.5299L50.1961 13.2162L50.4318 12.9805L50.1961 12.7448L47.8824 10.4311L47.6467 10.1954L47.411 10.4311L45.0973 12.7448Z" fill="#F0263C" stroke="white" stroke-width="0.666667"></path>
<path d="M44.4645 49.7648L44.2288 50.0005L44.4645 50.2362L47.8114 53.5831L48.0471 53.8188L48.2828 53.5831L51.6298 50.2362L51.8655 50.0005L51.6298 49.7648L48.2828 46.4178L48.0471 46.1821L47.8114 46.4178L44.4645 49.7648Z" fill="#F0263C" stroke="white" stroke-width="0.666667"></path>
<path d="M53.0973 22.0788L52.8616 22.3145L53.0973 22.5502L55.411 24.8639L55.6467 25.0996L55.8824 24.8639L58.1961 22.5502L58.4318 22.3145L58.1961 22.0788L55.8824 19.765L55.6467 19.5293L55.411 19.765L53.0973 22.0788Z" fill="#F0263C" stroke="white" stroke-width="0.666667"></path>
<clipPath id="mask1_197_7181" style="mask-type:alpha" maskUnits="userSpaceOnUse" x="0" y="0" width="31" height="28"><rect width="30.7" height="28" fill="#D9D9D9"></rect></clipPath>
<g clip-path="url(#mask1_197_7181)">
<path d="M11.8199 8.83336V8.51389L-2.23568 -0.75C-2.87747 0.0450637 -3.66156 0.934772 -4.15234 1.80556L6.70877 8.83333L11.8199 8.83336Z" fill="#F0263C"></path>
<path d="M11.5012 7.04432L-0.606163 -0.973797C-0.893663 -0.654353 -1.18116 -0.334909 -1.43672 -0.0154642L11.5331 8.54571V8.83321H7.2845L-2.87422 2.12481C-3.06589 2.50815 -3.25755 2.89148 -3.44922 3.27481L4.9845 8.83321H2.73242H-0.382535C-0.478369 9.24849 -0.574202 9.66376 -0.638091 10.111H12.7789L12.7789 -3.30566C12.3317 -3.24178 11.9164 -3.14594 11.5011 -3.05011L11.5012 7.04432Z" fill="white"></path>
<path d="M-0.638252 15.2222C-0.574363 15.6694 -0.47853 16.0847 -0.382696 16.4999H4.98435L-3.57715 22.186C-3.41743 22.5693 -3.22576 22.9526 -3.00215 23.336L7.28434 16.4999H11.501V16.7555L-1.59659 25.4443C-1.34104 25.7957 -1.05354 26.1151 -0.766037 26.4026L11.501 18.2888L11.501 28.0638C11.9163 28.1596 12.3316 28.2554 12.7788 28.3193L12.7788 17.4263V15.893V15.2222H-0.638252Z" fill="white"></path>
<path d="M31.3057 10.1111C31.2418 9.66387 31.146 9.24859 31.0501 8.83332H25.6841L32.9029 4.04165C32.7112 3.65832 32.5515 3.27498 32.3279 2.89165L23.3841 8.83332H19.1674V8.57776L31.8807 0.208301C31.6251 -0.143088 31.3376 -0.462532 31.0501 -0.750032L19.1674 7.04443V-2.98614C18.7521 -3.08198 18.3369 -3.17781 17.8896 -3.2417V7.90693V9.44026V10.1111H31.3057Z" fill="white"></path>
<path d="M17.8897 15.2222L17.8896 28.6388C18.3369 28.5749 18.7521 28.479 19.1674 28.3832L19.1674 18.2888L30.7946 25.7638C31.0821 25.4443 31.3696 25.1249 31.6251 24.8054L19.1674 16.7555V16.4999H23.3841L32.0085 22.1221C32.2001 21.7388 32.3918 21.3554 32.5835 20.9721L25.6841 16.4999H31.0501C31.146 16.0847 31.2418 15.6694 31.3057 15.2222H17.8897Z" fill="white"></path>
<path d="M32.5837 2.76356C32.1684 2.02884 31.6892 1.29412 31.1781 0.655227L19.167 8.57748V8.83303H23.3837L32.5837 2.76356Z" fill="#F0263C"></path>
<path d="M-2.04394 22.6972C-1.62866 23.4319 -1.14949 24.1667 -0.638382 24.8056L11.5005 16.7556V16.5H7.28385L-2.04394 22.6972Z" fill="#F0263C"></path>
<path d="M19.167 16.5V16.7556L30.8587 24.3583C31.4017 23.6875 31.8489 22.9847 32.2642 22.25L23.3837 16.5H19.167Z" fill="#F0263C"></path>
<path d="M30.9862 10.1109H17.889V9.44006V7.90672V-2.98629C17.0584 -3.14601 16.1959 -3.2099 15.3334 -3.2099C14.4709 -3.2099 13.6084 -3.14601 12.7779 -2.98629V10.1109H-0.319358C-0.47908 10.9414 -0.542969 11.8039 -0.542969 12.6664C-0.542969 13.5289 -0.47908 14.3914 -0.319358 15.222H12.7779L12.7778 28.3192C13.6084 28.447 14.4709 28.5428 15.3334 28.5428C16.1959 28.5428 17.0584 28.479 17.889 28.3192L17.889 15.222H30.9862C31.114 14.3914 31.2098 13.5289 31.2098 12.6664C31.2098 11.8039 31.1459 10.9414 30.9862 10.1109Z" fill="#F0263C"></path>
</g>
</g>
</g>
<defs>
<clipPath id="clip0_197_7181">
<rect width="64" height="64" fill="white"></rect>
</clipPath>
</defs>
</svg>
