<svg width="64" height="64" viewBox="0 0 64 64" fill="none" xmlns="http://www.w3.org/2000/svg">
<g clip-path="url(#clip0_199_10056)">
<rect width="64" height="64" rx="32" fill="white"></rect>
<clipPath id="mask0_199_10056" style="mask-type:alpha" maskUnits="userSpaceOnUse" x="0" y="0" width="64" height="64"><circle cx="32" cy="32" r="32" fill="#C4C4C4"></circle></clipPath>
<g clip-path="url(#mask0_199_10056)">
<path d="M0 0H64V64H0V0Z" fill="#F0263C"></path>
<path d="M36 43L36 64L64 64L64 43L36 43Z" fill="#005B13"></path>
<path d="M36 5.97999e-07L36 21L64 21L64 -5.37231e-07L36 5.97999e-07Z" fill="white"></path>
<path fill-rule="evenodd" clip-rule="evenodd" d="M27.6162 8.42728L26.3834 7.57275L21.829 14.1433L13.5717 19.8842L14.4279 21.1158L22.9075 15.2204L27.6162 8.42728Z" fill="white"></path>
<path fill-rule="evenodd" clip-rule="evenodd" d="M15.3838 8.42728L16.6166 7.57275L21.171 14.1433L29.4283 19.8842L28.5721 21.1158L20.0925 15.2204L15.3838 8.42728Z" fill="white"></path>
<clipPath id="path-8-outside-1_199_10056" maskUnits="userSpaceOnUse" x="14" y="9.91663" width="10" height="10" fill="black"><rect fill="white" x="14" y="9.91663" width="10" height="10"></rect><path fill-rule="evenodd" clip-rule="evenodd" d="M21 10.9166L20 11.5V15.5L16.3333 16L15 16.6V17.2L21.2222 18.5L23 17.4V16.5V15V13.9999V11.5L22 10.9166H21Z"></path></clipPath>
<path fill-rule="evenodd" clip-rule="evenodd" d="M21 10.9166L20 11.5V15.5L16.3333 16L15 16.6V17.2L21.2222 18.5L23 17.4V16.5V15V13.9999V11.5L22 10.9166H21Z" fill="white"></path>
<path d="M20 11.5L19.7481 11.0681L19.5 11.2128V11.5H20ZM21 10.9166V10.4166H20.8648L20.7481 10.4847L21 10.9166ZM20 15.5L20.0676 15.9954L20.5 15.9364V15.5H20ZM16.3333 16L16.2658 15.5045L16.1941 15.5143L16.1282 15.544L16.3333 16ZM15 16.6L14.7948 16.144L14.5 16.2767V16.6H15ZM15 17.2H14.5V17.6063L14.8977 17.6894L15 17.2ZM21.2222 18.5L21.12 18.9894L21.3155 19.0302L21.4853 18.9251L21.2222 18.5ZM23 17.4L23.2631 17.8251L23.5 17.6786V17.4H23ZM23 11.5H23.5V11.2128L23.2519 11.0681L23 11.5ZM22 10.9166L22.2519 10.4847L22.1352 10.4166H22V10.9166ZM20.2519 11.9318L21.2519 11.3485L20.7481 10.4847L19.7481 11.0681L20.2519 11.9318ZM20.5 15.5V11.5H19.5V15.5H20.5ZM16.4009 16.4954L20.0676 15.9954L19.9324 15.0045L16.2658 15.5045L16.4009 16.4954ZM15.2052 17.0559L16.5385 16.4559L16.1282 15.544L14.7948 16.144L15.2052 17.0559ZM15.5 17.2V16.6H14.5V17.2H15.5ZM21.3245 18.0105L15.1023 16.7105L14.8977 17.6894L21.12 18.9894L21.3245 18.0105ZM22.7369 16.9748L20.9591 18.0748L21.4853 18.9251L23.2631 17.8251L22.7369 16.9748ZM22.5 16.5V17.4H23.5V16.5H22.5ZM22.5 15V16.5H23.5V15H22.5ZM22.5 13.9999V15H23.5V13.9999H22.5ZM22.5 11.5V13.9999H23.5V11.5H22.5ZM21.7481 11.3485L22.7481 11.9318L23.2519 11.0681L22.2519 10.4847L21.7481 11.3485ZM21 11.4166H22V10.4166H21V11.4166Z" fill="#F0263C" clip-path="url(#path-8-outside-1_199_10056)"></path>
<path fill-rule="evenodd" clip-rule="evenodd" d="M20.75 12V8.5H22.25V12H20.75Z" fill="white"></path>
<path d="M21.453 7.6196L22.9062 8.45325L21.453 9.47849L19.9997 8.45325L21.453 7.6196Z" fill="white"></path>
</g>
<path d="M14 12.825H13.825V13V15V15.175H14H15.875H15.8979L15.9201 15.1691L17.7729 14.675H21.5H25.2271L27.0799 15.1691L27.1021 15.175H27.125H29H29.175V15V13V12.825H29H27.125H27.1021L27.0799 12.8309L25.2271 13.325H21.5H17.7729L15.9201 12.8309L15.8979 12.825H15.875H14Z" fill="white" stroke="#F0263C" stroke-width="0.35"></path>
</g>
<defs>
<clipPath id="clip0_199_10056">
<rect width="64" height="64" rx="32" fill="white"></rect>
</clipPath>
</defs>
</svg>
