<svg width="64" height="64" viewBox="0 0 64 64" fill="none" xmlns="http://www.w3.org/2000/svg">
<g clip-path="url(#clip0_199_9959)">
<path d="M63.9994 32C63.9994 14.3333 49.6661 0 31.9994 0C23.1327 0 15.1994 3.6 9.39941 9.4L31.9994 32H63.9994Z" fill="#231D9A"/>
<path d="M31.9994 32L9.39941 54.6C15.1994 60.4 23.1327 64 31.9994 64C49.6661 64 63.9994 49.6667 63.9994 32H31.9994Z" fill="#F0263C"/>
<path d="M32 31.9997L9.4 9.39966C3.6 15.133 0 23.133 0 31.9997C0 40.8663 3.6 48.8663 9.4 54.5997L32 31.9997Z" fill="white"/>
<path d="M26.7143 29.3133L24.0273 32.0002L26.7143 34.6872L29.4013 32.0002L26.7143 29.3133Z" fill="#FFD400"/>
<path d="M8.04831 13.3133L5.36133 16.0002L8.04831 18.6872L10.7353 16.0002L8.04831 13.3133Z" fill="#FFD400"/>
<path d="M8.04831 45.313L5.36133 48L8.04831 50.687L10.7353 48L8.04831 45.313Z" fill="#FFD400"/>
<path d="M16.5346 29.3334L19.5346 26.3334L17.668 24.4667L14.668 27.4667C14.268 27.2001 13.8013 27.0667 13.3346 26.9334V22.6667H10.668V26.8667C10.2013 27.0001 9.73464 27.2001 9.33464 27.4001L6.33464 24.4001L4.46797 26.2667L7.4013 29.2001C7.13464 29.6001 6.93464 30.0667 6.8013 30.5334H2.66797V31.8667V33.2001H6.86797C7.0013 33.6667 7.2013 34.1334 7.46797 34.6001L4.53464 37.5334L6.4013 39.4001L9.33464 36.4667C9.73464 36.7334 10.2013 36.9334 10.7346 37.0667V41.3334H13.4013V37.1334C13.868 37.0001 14.3346 36.8001 14.7346 36.5334L17.668 39.4667L19.5346 37.6001L16.6013 34.6667C16.868 34.2667 17.0013 33.8001 17.1346 33.3334H21.3346V32.0001V30.6667H17.1346C17.0013 30.2001 16.8013 29.7334 16.5346 29.3334Z" fill="#FFD400"/>
</g>
<defs>
<clipPath id="clip0_199_9959">
<rect width="64" height="64" fill="white"/>
</clipPath>
</defs>
</svg>
