<svg width="64" height="64" viewBox="0 0 64 64" fill="none" xmlns="http://www.w3.org/2000/svg">
<g clip-path="url(#clip0_199_10142)">
<path d="M32 64C49.6731 64 64 49.6731 64 32C64 14.3269 49.6731 0 32 0C14.3269 0 0 14.3269 0 32C0 49.6731 14.3269 64 32 64Z" fill="white"/>
<path d="M64 32C64 14.3333 49.6667 0 32 0C26.2 0 20.7333 1.6 16 4.26667V59.6667C20.7333 62.4 26.2 63.9333 32 63.9333C49.6667 64 64 49.6667 64 32Z" fill="#005B13"/>
<path d="M29.3333 26.6667C29.3333 23.6 30.2 20.7334 31.6667 18.3334C27.0667 21.1334 24 26.2 24 32C24 40.8667 31.1333 48 40 48C45.8 48 50.8667 44.9334 53.6667 40.3334C51.2667 41.8 48.4 42.6667 45.3333 42.6667C36.4667 42.6667 29.3333 35.5334 29.3333 26.6667Z" fill="white"/>
<path d="M44.3688 17.7257L47.4634 20.0577L50.6376 17.8351L49.376 21.4989L52.4707 23.8309L48.5963 23.7633L47.3348 27.427L46.2019 23.7215L42.3276 23.6538L45.5017 21.4313L44.3688 17.7257Z" fill="white"/>
</g>
<defs>
<clipPath id="clip0_199_10142">
<rect width="64" height="64" fill="white"/>
</clipPath>
</defs>
</svg>
