<svg width="64" height="64" viewBox="0 0 64 64" fill="none" xmlns="http://www.w3.org/2000/svg">
<g clip-path="url(#clip0_199_9434)">
<path d="M63.9997 32C63.9997 14.3333 49.6663 0 31.9997 0C28.2663 0 24.6663 0.666667 21.333 1.8V62.1333C24.6663 63.3333 28.2663 64 31.9997 64C49.6663 64 63.9997 49.6667 63.9997 32Z" fill="#F0263C"/>
<path d="M0 32C0 45.9334 8.93333 57.8001 21.3333 62.2001V1.80005C8.93333 6.20005 0 18.0667 0 32Z" fill="#005B13"/>
<path d="M17.0664 34.9336C17.1331 35.0002 17.1997 35.1336 17.2664 35.2002C17.1997 35.0669 17.1331 35.0002 17.0664 34.9336Z" fill="#FFD400"/>
<path d="M25.3994 35.2002C25.4661 35.1336 25.5327 35.0002 25.5994 34.9336C25.5327 35.0002 25.4661 35.0669 25.3994 35.2002Z" fill="#FFD400"/>
<path d="M21.333 18.6667C14.733 18.6667 9.33301 24.0667 9.33301 30.6667C9.33301 37.2667 14.733 42.6667 21.333 42.6667C27.933 42.6667 33.333 37.2667 33.333 30.6667C33.333 24.0667 27.933 18.6667 21.333 18.6667ZM30.533 32L29.2663 32.6667C29.1997 33.2667 29.0663 33.8 28.8663 34.4L31.7997 32.9333C31.533 34.1333 31.0663 35.2667 30.4663 36.2667L28.7997 34.6C28.6663 35.0667 28.4663 35.4667 28.1997 35.8667L29.2663 36.9333L27.2663 37.2C26.733 37.8667 26.133 38.4 25.4663 38.8L28.8663 38.3333C26.9997 40 24.6663 41.1333 21.9997 41.2667V39.9333C21.7997 39.9333 21.533 40 21.333 40C21.133 40 20.8663 40 20.6663 39.9333V41.2667C17.9997 41.1333 15.6663 40 13.8663 38.2667L17.2663 38.7333C16.5997 38.2667 15.9997 37.7333 15.4663 37.1333L13.4663 36.8667L14.533 35.8C14.333 35.4 14.133 34.9333 13.933 34.5333L12.2663 36.2C11.6663 35.2 11.1997 34.0667 10.933 32.8667L13.8663 34.3333C13.6663 33.8 13.533 33.2 13.4663 32.6L12.1997 31.9333L13.3997 31.3333C13.3997 31.2667 13.3997 31.2667 13.3997 31.2V30.6667V29.9333L10.733 31.2667C10.733 31.0667 10.733 30.8667 10.733 30.6667C10.733 29.6667 10.8663 28.6667 11.133 27.7333L13.3997 29.2667V27.6667L12.2663 26.8667L13.3997 26.4667V25.3333V25.0667L12.0663 25.5333C12.4663 24.8667 12.8663 24.2 13.3997 23.6667V22.6667H14.3997C16.133 21.1333 18.333 20.2 20.733 20.0667V22.6667H21.3997H22.0663V20.0667C24.4663 20.2 26.733 21.2 28.3997 22.6667H29.333V23.6C29.8663 24.2 30.2663 24.8 30.6663 25.4667L29.333 25V25.3333V26.4667L30.4663 26.8667L29.333 27.6667V29.2667L31.5997 27.7333C31.8663 28.6667 31.9997 29.6667 31.9997 30.6667C31.9997 30.8667 31.9997 31.0667 31.9997 31.2667L29.333 29.9333V30.6667V31.2667C29.333 31.3333 29.333 31.3333 29.333 31.4L30.533 32Z" fill="#FFD400"/>
<path d="M26.6 32H24V29.3333H26.6667V25.3333H22.6667V28H20V25.3333H16V29.3333H18.6667V32H16.0667C16.0667 32.2 16.1333 32.4666 16.2 32.6666V32.7333C16.4 33.5333 16.6667 34.2666 17.1333 34.8666C17.2 34.9333 17.2667 35.0666 17.3333 35.1333C17.6667 35.6 18 35.9333 18.4667 36.2666C18.7333 36.4666 19 36.6 19.2667 36.7333C19.4667 36.8666 19.7333 36.9333 19.9333 37C20.2 37.0666 20.4667 37.1333 20.7333 37.2C20.9333 37.2 21.1333 37.2666 21.4 37.2666C21.8667 37.2666 22.2667 37.2 22.6667 37.0666C23.0667 36.9333 23.4667 36.8 23.8 36.6C24 36.4666 24.1333 36.4 24.3333 36.2666C24.7333 35.9333 25.1333 35.5333 25.4667 35.1333C25.5333 35.0666 25.6 34.9333 25.6667 34.8666C26.0667 34.2 26.4 33.5333 26.6 32.7333V32.6666C26.5333 32.4666 26.6 32.2 26.6 32ZM20 29.3333H22.6667V32H20V29.3333ZM22.6667 36H20V33.3333H22.6667V36Z" fill="white"/>
<path d="M17.3333 24L16 25.3333H20H21.3333L20 24L21.3333 22.6666H20.6667H16L17.3333 24Z" fill="#F0263C"/>
<path d="M27.9993 24L26.666 25.3333V29.3333V30.6666L27.9993 29.3333L29.3327 30.6666V29.9333V29.2666V27.6666V26.4666V25.3333V25.0666V23.6V22.6666H28.3327H26.666L27.9993 24Z" fill="#F0263C"/>
<path d="M22.6663 24L21.333 25.3333H22.6663H26.6663L25.333 24L26.6663 22.6666H21.9997H21.333L22.6663 24Z" fill="#F0263C"/>
<path d="M15.9997 30.6666V29.3333V25.3333L14.6663 24L15.9997 22.6666H14.333H13.333V23.6V25.0666V25.3333V26.4666V27.6666V29.2666V29.9333V30.6666L14.6663 29.3333L15.9997 30.6666Z" fill="#F0263C"/>
<path d="M29.333 30.6666L27.9997 32L26.6663 30.6666V31.2666V32H26.5997C26.5997 32.2 26.533 32.4666 26.4663 32.6666V32.7333C26.2663 33.5333 25.9997 34.2666 25.533 34.8666C25.4663 34.9333 25.3997 35.0666 25.333 35.1333C24.9997 35.6 24.6663 35.9333 24.1997 36.2666C23.9997 36.4 23.8663 36.5333 23.6663 36.6C23.333 36.8 22.933 37 22.533 37.0666C22.1997 37.2666 21.7997 37.3333 21.333 37.3333C21.133 37.3333 20.933 37.3333 20.6663 37.2666C20.3997 37.2 20.133 37.1333 19.8663 37.0666C19.6663 37 19.3997 36.8666 19.1997 36.8C18.933 36.6666 18.6663 36.4666 18.3997 36.3333C17.9997 36 17.5997 35.6 17.2663 35.2C17.1997 35.1333 17.133 35 17.0663 34.9333C16.6663 34.2666 16.333 33.6 16.133 32.8V32.7333C16.0663 32.5333 16.0663 32.2666 15.9997 32.0666V32.0666V31.3333V30.6666L14.6663 32L13.333 30.6666V31.2666C13.333 31.3333 13.333 31.3333 13.333 31.4C13.333 31.8 13.3997 32.2 13.3997 32.6C13.4663 33.2 13.5997 33.7333 13.7997 34.3333C13.7997 34.4 13.7997 34.4666 13.8663 34.4666C13.9997 34.9333 14.1997 35.3333 14.4663 35.7333C14.5997 35.9333 14.733 36.1333 14.8663 36.3333C15.0663 36.6 15.2663 36.8666 15.4663 37.0666C15.9997 37.7333 16.5997 38.2666 17.2663 38.6666C18.2663 39.3333 19.4663 39.7333 20.6663 39.8666C20.8663 39.8666 21.133 39.9333 21.333 39.9333C21.533 39.9333 21.7997 39.9333 21.9997 39.8666C23.1997 39.7333 24.3997 39.3333 25.3997 38.6666C26.0663 38.2 26.6663 37.6666 27.1997 37.0666C27.3997 36.8 27.5997 36.6 27.7997 36.3333C27.933 36.1333 28.0663 35.9333 28.1997 35.7333C28.3997 35.3333 28.5997 34.8666 28.7997 34.4666C28.7997 34.4 28.8663 34.3333 28.8663 34.3333C29.0663 33.8 29.1997 33.2 29.2663 32.6C29.333 32.2 29.333 31.8 29.333 31.4C29.333 31.3333 29.333 31.3333 29.333 31.2666V30.6666V30.6666ZM17.333 38L18.6663 36.6666L19.9997 38L18.6663 39.3333L17.333 38ZM25.333 38L23.9997 39.3333L22.6663 38L23.9997 36.6666L25.333 38Z" fill="#F0263C"/>
<path d="M22.6667 28V25.3333H21.3333H20V28H22.6667Z" fill="#231D9A"/>
<path d="M22.6667 29.3333H20V32H22.6667V29.3333Z" fill="#231D9A"/>
<path d="M18.6667 32V29.3333H16V30.6666V31.2666V32H16.0667H18.6667Z" fill="#231D9A"/>
<path d="M26.6667 29.3333H24V32H26.6H26.6667V31.2666V30.6666V29.3333Z" fill="#231D9A"/>
<path d="M22.6667 33.3333H20V36H22.6667V33.3333Z" fill="#231D9A"/>
<path d="M21.3326 22.68L20.0127 24L21.3326 25.3199L22.6525 24L21.3326 22.68Z" fill="#FFD400"/>
<path d="M15.9996 22.68L14.6797 23.9999L15.9996 25.3198L17.3195 23.9999L15.9996 22.68Z" fill="#FFD400"/>
<path d="M14.6656 29.3466L13.3457 30.6665L14.6656 31.9864L15.9855 30.6665L14.6656 29.3466Z" fill="#FFD400"/>
<path d="M18.6656 36.68L17.3457 37.9999L18.6656 39.3198L19.9855 37.9999L18.6656 36.68Z" fill="#FFD400"/>
<path d="M23.9996 36.68L22.6797 37.9999L23.9996 39.3198L25.3195 37.9999L23.9996 36.68Z" fill="#FFD400"/>
<path d="M27.9996 29.3467L26.6797 30.6666L27.9996 31.9865L29.3195 30.6666L27.9996 29.3467Z" fill="#FFD400"/>
<path d="M26.6656 22.68L25.3457 24L26.6656 25.3199L27.9855 24L26.6656 22.68Z" fill="#FFD400"/>
</g>
<defs>
<clipPath id="clip0_199_9434">
<rect width="64" height="64" fill="white"/>
</clipPath>
</defs>
</svg>
