<svg width="64" height="64" viewBox="0 0 64 64" fill="none" xmlns="http://www.w3.org/2000/svg">
<g clip-path="url(#clip0_199_9746)">
<path d="M32 64C49.6731 64 64 49.6731 64 32C64 14.3269 49.6731 0 32 0C14.3269 0 0 14.3269 0 32C0 49.6731 14.3269 64 32 64Z" fill="#005B13"/>
<path d="M54.6663 17.3335V25.3335L53.333 24.0002V17.3335H51.9997V22.6668L50.6663 21.3335V17.3335H49.333V20.0002L46.6663 17.3335V18.6668V20.0002L47.9997 21.3335L49.333 22.6668V26.6668L47.9997 29.3335L46.6663 28.0002H45.333V29.3335L43.9997 30.6668L42.6663 29.3335H41.333L42.6663 32.0002H43.9997H45.333L46.6663 30.6668H49.333L50.6663 28.0002V24.0002L51.9997 25.3335V29.3335L53.333 26.6668L54.6663 28.0002L51.9997 30.6668V32.0002H53.333L55.9997 29.3335V17.3335H54.6663Z" fill="white"/>
<path d="M10.6667 22.6668L12 24.0002V26.6668H13.3333V24.0002L14.6667 22.6668H16V17.3335H14.6667V20.6668V21.3335H13.3333V17.3335H12V21.3335H10.6667V18.6668H9.33333V21.3335H8V24.0002H9.33333L10.6667 22.6668Z" fill="white"/>
<path d="M17.3337 30.6668L18.667 29.3335V26.6668V25.3335H22.667V24.0002H18.667V17.3335H17.3337V24.0002H14.667V26.6668H15.7337L14.667 28.0002H13.3337V29.3335H14.667L16.0003 28.0002L17.1337 26.6668H17.3337V28.0002L14.667 30.6668H13.3337L12.0003 29.3335V28.0002H10.667V30.6668L12.0003 32.0002H16.0003L17.3337 30.6668Z" fill="white"/>
<path d="M21.3333 26.6665H20V27.9998H21.3333V26.6665Z" fill="white"/>
<path d="M22.6667 18.6668V17.3335H21.3333V18.6668L20 20.0002V21.3335L21.3333 20.0002L22.6667 18.6668Z" fill="white"/>
<path d="M22.6663 21.3335H21.333V22.6668H22.6663V21.3335Z" fill="white"/>
<path d="M9.33333 29.3335H8V30.6668L9.33333 32.0002H10.6667L9.33333 30.6668V29.3335Z" fill="white"/>
<path d="M33.3333 17.3335H32V20.0002V21.3335L30.6667 20.0002V17.3335H29.3333V20.0002L28 21.3335V18.6668L26.6667 17.3335L25.3333 21.3335V18.6668H24V21.3335L25.3333 22.6668L26.6667 21.3335L28 22.6668H29.3333V21.3335H30.6667V22.6668H32L33.3333 21.3335V17.3335Z" fill="white"/>
<path d="M34.6663 31.9998H35.9997V30.6665H33.333L34.6663 31.9998Z" fill="white"/>
<path d="M41.3337 17.3335H40.0003V25.3335L38.667 22.6668L37.3337 20.0002V17.3335H36.0003V18.6668L34.667 17.3335V20.0002L36.0003 21.3335V25.3335V26.6668H32.0003L33.3337 25.3335L34.667 24.0002L33.3337 22.6668H32.0003V24.0002L30.667 25.3335L29.3337 26.6668V28.0002H32.0003L30.667 29.3335V30.6668L28.0003 28.0002V24.0002H26.667V26.6668V28.0002L24.0003 30.6668H22.667L24.0003 29.3335L25.3337 28.0002V25.3335V24.0002H24.0003V28.0002H22.667L18.667 30.6668V32.0002H20.0003L21.3337 30.6668L22.667 32.0002H25.3337L28.0003 29.3335V30.6668L29.3337 32.0002H30.667H32.0003V29.3335L36.0003 28.0002V30.6668L37.3337 29.3335V22.6668L40.0003 28.0002L38.667 30.6668H37.3337L38.667 32.0002H40.0003L41.3337 29.3335V17.3335Z" fill="white"/>
<path d="M44.0003 17.3335H42.667V28.0002H44.0003V17.3335Z" fill="white"/>
<path d="M45.333 22.6668H46.6663L47.9997 21.3335H45.333V22.6668Z" fill="white"/>
<path d="M47.9997 24H45.333V25.3333H46.6663L47.9997 24Z" fill="white"/>
<path d="M48 42.6665H46.6667V43.9998H12L16 46.6665H46.6667V47.9998H48V46.6665H49.3333L50.6667 47.9998H52V43.9998H48V42.6665Z" fill="white"/>
<path d="M9.33333 25.3335L8 26.6668V28.0002L10.6667 25.3335H9.33333Z" fill="white"/>
</g>
<defs>
<clipPath id="clip0_199_9746">
<rect width="64" height="64" fill="white"/>
</clipPath>
</defs>
</svg>
