<svg width="64" height="64" viewBox="0 0 64 64" fill="none" xmlns="http://www.w3.org/2000/svg">
<g clip-path="url(#clip0_199_9993)">
<path d="M32 0C14.3333 0 0 14.3333 0 32H64C64 14.3333 49.6667 0 32 0Z" fill="#F0263C"/>
<path d="M32 64C49.6667 64 64 49.6667 64 32H0C0 49.6667 14.3333 64 32 64Z" fill="white"/>
<path d="M25.3649 10.6456L23.3379 12.6726L25.3649 14.6996L27.3919 12.6726L25.3649 10.6456Z" fill="white"/>
<path d="M21.1948 13.9805L18.6406 15.282L19.9421 17.8362L22.4963 16.5347L21.1948 13.9805Z" fill="white"/>
<path d="M23.6888 19.3895L20.8574 19.8379L21.3058 22.6693L24.1372 22.221L23.6888 19.3895Z" fill="white"/>
<path d="M26.9483 19.3627L26.5 22.1941L29.3314 22.6424L29.7798 19.811L26.9483 19.3627Z" fill="white"/>
<path d="M29.4636 13.9524L28.1621 16.5066L30.7163 17.8081L32.0178 15.2539L29.4636 13.9524Z" fill="white"/>
<path d="M14.6654 18C14.6654 13.4 17.7987 9.53333 21.9987 8.4C21.132 8.13333 20.2654 8 19.332 8C13.7987 8 9.33203 12.4667 9.33203 18C9.33203 23.5333 13.7987 28 19.332 28C20.2654 28 21.132 27.8667 21.9987 27.6C17.7987 26.4667 14.6654 22.6 14.6654 18Z" fill="white"/>
</g>
<defs>
<clipPath id="clip0_199_9993">
<rect width="64" height="64" fill="white"/>
</clipPath>
</defs>
</svg>
