<svg width="64" height="64" viewBox="0 0 64 64" fill="none" xmlns="http://www.w3.org/2000/svg">
<g clip-path="url(#clip0_199_9334)">
<path d="M0 32C0 35.7333 0.666667 39.3333 1.8 42.6666H62.1333C63.3333 39.3333 64 35.7333 64 32C64 28.2666 63.3333 24.6666 62.2 21.3333H1.8C0.666667 24.6666 0 28.2666 0 32Z" fill="#231D9A"/>
<path d="M1.80078 21.3333H62.1341C57.8008 8.93333 45.9341 0 32.0008 0C18.0674 0 6.20078 8.93333 1.80078 21.3333Z" fill="white"/>
<path d="M62.2008 42.6667H1.80078C6.20078 55.0667 18.0674 64 32.0008 64C45.9341 64 57.8008 55.0667 62.2008 42.6667Z" fill="#F0263C"/>
<path d="M17.3351 22.6667L16.0018 20.0001L14.6684 22.6667L13.3351 21.3334L10.8018 23.8667C11.3351 26.2667 13.4684 28.0001 16.0018 28.0001C18.5351 28.0001 20.6684 26.2001 21.2018 23.8667L18.6684 21.3334L17.3351 22.6667Z" fill="white"/>
<path d="M16.0013 13.3334C12.668 13.3334 10.668 14.6667 10.668 14.6667V22.6667C10.668 23.0667 10.7346 23.4667 10.8013 23.8667L13.3346 21.3334L14.668 22.6667L16.0013 20L17.3346 22.6667L18.668 21.3334L21.2013 23.8667C21.268 23.4667 21.3346 23.0667 21.3346 22.6667V14.6667C21.3346 14.6667 19.3346 13.3334 16.0013 13.3334Z" fill="#231D9A"/>
<path d="M14.3249 15.6195L13.335 14.6296L12.345 15.6195L13.335 16.6095L14.3249 15.6195Z" fill="#FFD400"/>
<path d="M16.9909 17.6195L16.001 16.6296L15.011 17.6195L16.001 18.6095L16.9909 17.6195Z" fill="#FFD400"/>
<path d="M19.6579 15.6195L18.668 14.6296L17.678 15.6195L18.668 16.6095L19.6579 15.6195Z" fill="#FFD400"/>
</g>
<defs>
<clipPath id="clip0_199_9334">
<rect width="64" height="64" fill="white"/>
</clipPath>
</defs>
</svg>
