<svg width="64" height="64" viewBox="0 0 64 64" fill="none" xmlns="http://www.w3.org/2000/svg">
<g clip-path="url(#clip0_199_9192)">
<path d="M0 32C0 35.7334 0.666667 39.3334 1.8 42.6667H62.1333C63.3333 39.3334 64 35.7334 64 32C64 28.2667 63.3333 24.6667 62.2 21.3334H1.8C0.666667 24.6667 0 28.2667 0 32Z" fill="#231D9A"/>
<path d="M1.80078 21.3333H62.1341C57.8008 8.93333 45.9341 0 32.0008 0C18.0674 0 6.20078 8.93333 1.80078 21.3333Z" fill="white"/>
<path d="M62.2008 42.6666H1.80078C6.20078 55.0666 18.0674 64 32.0008 64C45.9341 64 57.8008 55.0666 62.2008 42.6666Z" fill="#F0263C"/>
<path d="M6.66634 19.9999H25.333L26.6663 33.3333L23.133 40.1333L15.9997 43.7333L8.86634 40.1333L5.33301 33.3333L6.66634 19.9999Z" fill="#F0263C"/>
<path d="M25.3333 20L26.6667 33.3333L23.1333 40.1333L16 43.7333L8.86667 40.2L5.33333 33.3333L6.66667 20H25.3333ZM26.5333 18.6666H5.46667L4 33.6L7.93333 41.1333L16 45.3333L24.0667 41.1333L28 33.6L26.5333 18.6666Z" fill="white"/>
<path d="M24.6004 37.3333L23.1337 40.1333L16.0004 43.7333L8.86706 40.1333L7.40039 37.3333L10.6671 35.9999H21.3337L24.6004 37.3333Z" fill="#231D9A"/>
<path d="M22.6663 29.3334H17.333V26.6667H21.333V24H17.333V21.3334H14.6663V24H10.6663V26.6667H14.6663V29.3334H9.33301V32H14.6663V36H17.333V32H22.6663V29.3334Z" fill="white"/>
</g>
<defs>
<clipPath id="clip0_199_9192">
<rect width="64" height="64" fill="white"/>
</clipPath>
</defs>
</svg>
