<svg width="64" height="64" viewBox="0 0 64 64" fill="none" xmlns="http://www.w3.org/2000/svg">
<g clip-path="url(#clip0_199_9398)">
<path d="M32 0C14.3333 0 0 14.3333 0 32H64C64 14.3333 49.6667 0 32 0Z" fill="white"/>
<path d="M32.0003 42.6666L29.3337 41.3333L28.0003 40V41.3333H26.667V42.6666H32.0003Z" fill="#78C9FF"/>
<path d="M39.9997 40L38.6663 38.6666L37.333 41.3333H39.9997V40Z" fill="#78C9FF"/>
<path d="M40 32V34.6666L41.3333 32H40Z" fill="#78C9FF"/>
<path d="M42.667 34.6666H44.0003L45.3337 32H44.0003L42.667 33.3333V34.6666Z" fill="#78C9FF"/>
<path d="M25.3333 38.6666L24 40V41.3333H26.6667L25.3333 38.6666Z" fill="#78C9FF"/>
<path d="M22.667 32L24.0003 34.6666V32H22.667Z" fill="#78C9FF"/>
<path d="M37.3333 41.3333H36V40L34.6667 41.3333L32 42.6666H37.3333V41.3333Z" fill="#78C9FF"/>
<path d="M23.9997 37.3333L21.333 36L22.6663 38.6666L23.9997 37.3333Z" fill="#78C9FF"/>
<path d="M21.3337 34.6666V33.3333L20.0003 32H18.667L20.0003 34.6666H21.3337Z" fill="#78C9FF"/>
<path d="M41.3333 38.6666L42.6667 36L40 37.3333L41.3333 38.6666Z" fill="#78C9FF"/>
<path d="M48 32L46.6667 34.6666L45.3333 36L44 37.3333L46.6667 38.6666L45.3333 40H42.6667L44 41.3333H45.3333V44L42.6667 42.6666H41.3333H40V44H37.3333V45.3333H26.6667V44H24V42.6666H22.6667H21.3333L18.6667 44V41.3333H20L21.3333 40H18.6667L17.3333 38.6666L20 37.3333L18.6667 36L17.3333 34.6666L16 32H0C0 49.6666 14.3333 64 32 64C49.6667 64 64 49.6666 64 32H48Z" fill="#78C9FF"/>
<path d="M26.667 34.6666H28.0003V29.3333H29.3337V34.6666H30.667V29.3333H33.3337V34.6666H34.667V29.3333H36.0003V34.6666H37.3337V28H34.667L32.0003 26.6666L29.3337 28H26.667V34.6666Z" fill="#78C9FF"/>
<path d="M29.3333 29.3333H28V34.6666H29.3333V29.3333Z" fill="white"/>
<path d="M36.0003 29.3333H34.667V34.6666H36.0003V29.3333Z" fill="white"/>
<path d="M33.3337 29.3333H30.667V34.6666H33.3337V29.3333Z" fill="white"/>
<path d="M25.3333 30.6666L24 31.3333V32V34.6666H25.3333V36L26.6667 37.3333L28 40L29.3333 41.3333L32 42.6666L34.6667 41.3333L36 40L37.3333 37.3333L38.6667 36V34.6666H40V32V31.3333L38.6667 30.6666V28L40 29.3333V28L37.3333 25.3333H36V24L37.3333 22.6666L38.6667 21.3333L36 18.6666H33.3333V16L32 14.6666L30.6667 16V18.6666H28L25.3333 21.3333L26.6667 22.6666L28 24V25.3333H26.6667L24 28V29.3333L25.3333 28V30.6666ZM34 20H35.3333L36.6667 21.3333L35.3333 22.6666H34V20ZM29.3333 20H30.6667V22.6666H29.3333L28 21.3333L29.3333 20ZM29.3333 28L32 26.6666L34.6667 28H37.3333V34.6666L34.6667 38.6666L32 40.6666L29.3333 38.6666L26.6667 34.6666V28H29.3333Z" fill="#CC9500"/>
<path d="M34.667 34.6666H33.3337H30.667H29.3337H28.0003H26.667L29.3337 38.6666L32.0003 40.6666L34.667 38.6666L37.3337 34.6666H36.0003H34.667Z" fill="#005B13"/>
<path d="M30.6667 22.6666V20H29.3333L28 21.3333L29.3333 22.6666H30.6667Z" fill="white"/>
<path d="M36.6667 21.3333L35.3333 20H34V22.6666H35.3333L36.6667 21.3333Z" fill="white"/>
<path d="M18.6667 36L20 37.3333L17.3333 38.6666L18.6667 40H21.3333L20 41.3333H18.6667V44L21.3333 42.6666H22.6667V41.3333H24V40L25.3333 38.6666L26.6667 41.3333H28V40L26.6667 37.3333L25.3333 36V34.6666H24L22.6667 32L24 31.3333L25.3333 30.6666V28L24 29.3333L22.6667 30.6666V28L24 26.6666L25.3333 25.3333V22.6666L22.6667 24L21.3333 25.3333V28V30.6666L20 28H18.6667V29.3333L20 32L21.3333 33.3333V34.6666H20L18.6667 32H16L17.3333 34.6666L18.6667 36ZM24 37.3333L22.6667 38.6666L21.3333 36L24 37.3333Z" fill="#005B13"/>
<path d="M38.6667 30.6666L40 31.3333L41.3333 32L40 34.6666H38.6667V36L37.3333 37.3333L36 40V41.3333H37.3333L38.6667 38.6666L40 40V41.3333H41.3333V42.6666H42.6667L45.3333 44V41.3333H44L42.6667 40H45.3333L46.6667 38.6666L44 37.3333L45.3333 36L46.6667 34.6666L48 32H45.3333L44 34.6666H42.6667V33.3333L44 32L45.3333 29.3333V28H44L42.6667 30.6666V28V25.3333L41.3333 24L38.6667 22.6666V25.3333L40 26.6666L41.3333 28V30.6666L40 29.3333L38.6667 28V30.6666ZM41.3333 38.6666L40 37.3333L42.6667 36L41.3333 38.6666Z" fill="#005B13"/>
<path d="M40.0003 41.3333H37.3337V42.6666H32.0003H26.667V41.3333H24.0003H22.667V42.6666H24.0003V44H26.667V45.3333H37.3337V44H40.0003V42.6666H41.3337V41.3333H40.0003Z" fill="white"/>
</g>
<defs>
<clipPath id="clip0_199_9398">
<rect width="64" height="64" fill="white"/>
</clipPath>
</defs>
</svg>
