<svg width="64" height="64" viewBox="0 0 64 64" fill="none" xmlns="http://www.w3.org/2000/svg">
<g clip-path="url(#clip0_199_9768)">
<path d="M0 32.0002C0 35.7335 0.666667 39.3335 1.8 42.6668H62.1333C63.3333 39.3335 64 35.7335 64 32.0002C64 28.2668 63.3333 24.6668 62.2 21.3335H1.8C0.666667 24.6668 0 28.2668 0 32.0002Z" fill="#231D9A"/>
<path d="M1.80078 21.3332H62.1341C60.7341 17.3332 58.5341 13.7332 55.8008 10.6665H8.13411C5.40078 13.7332 3.26745 17.3332 1.80078 21.3332Z" fill="white"/>
<path d="M8.13411 53.3332H55.8008C58.5341 50.2665 60.7341 46.6665 62.1341 42.6665H1.80078C3.26745 46.6665 5.40078 50.2665 8.13411 53.3332Z" fill="white"/>
<path d="M8.13379 10.6667H55.8005C50.0005 4.13333 41.4671 0 32.0005 0C22.5338 0 14.0005 4.13333 8.13379 10.6667Z" fill="#960A3C"/>
<path d="M55.8671 53.3335H8.13379C14.0005 59.8668 22.5338 64.0002 32.0005 64.0002C41.4671 64.0002 50.0005 59.8668 55.8671 53.3335Z" fill="#960A3C"/>
</g>
<defs>
<clipPath id="clip0_199_9768">
<rect width="64" height="64" fill="white"/>
</clipPath>
</defs>
</svg>
