<svg width="64" height="64" viewBox="0 0 64 64" fill="none" xmlns="http://www.w3.org/2000/svg">
<g clip-path="url(#clip0_199_10151)">
<clipPath id="mask0_199_10151" style="mask-type:alpha" maskUnits="userSpaceOnUse" x="0" y="0" width="64" height="64"><circle cx="32" cy="32" r="32" fill="#C4C4C4"></circle></clipPath>
<g clip-path="url(#mask0_199_10151)">
<path d="M0 0H64V64H0V0Z" fill="#005B13"></path>
<path d="M46.2548 16C48.8493 17.1139 50.667 19.6918 50.667 22.6937C50.667 26.7145 47.4063 29.9753 43.3855 29.9753C41.5854 29.9753 39.938 29.3213 38.667 28.2386C39.4533 28.5758 40.3124 28.7795 41.2176 28.819C45.2346 28.9944 48.6344 25.8791 48.8098 21.8621C48.9116 19.5299 47.904 17.4059 46.2548 16L46.2548 16Z" fill="white"></path>
<path d="M38.0713 18L36 20.0713L38.0713 22.1426L40.1426 20.0713L38.0713 18Z" fill="white"></path>
<rect x="10" width="18" height="64" fill="#F0263C"></rect>
<path fill-rule="evenodd" clip-rule="evenodd" d="M14.5 27.1113H19H20H23.7857V28.5113H25.5V33.7113H23.7857V35.1113H20H19H14.5V33.7113H12.5V28.5113H14.5V27.1113ZM19 34.1113H20H22.7857V33.2121V32.7113H24.5V29.5113H22.7857V28.1113H20H19H15.5V29.5113H13.5V32.7113H15.5V33.2121V34.1113H19Z" fill="#FFD400"></path>
<path fill-rule="evenodd" clip-rule="evenodd" d="M19 -0.5H17.1975L15.8641 0.747863H14.5308L14.1667 1.08866V1.7126L13.5 2.33653V3.6498L14.1667 4.27373V5.02245L14.5308 5.36325H15.8641L17.1975 6.61111H19H20.8025L22.1359 5.36325H23.4692L23.8333 5.02245V4.27373L24.5 3.6498V2.33653L23.8333 1.7126V1.08866L23.4692 0.747863H22.1359L20.8025 -0.5H19ZM19 -1.5H21.1975L22.5308 -0.252137H23.8641L24.8333 0.654925V1.27886L25.5 1.90279V4.08354L24.8333 4.70747V5.45619L23.8641 6.36325H22.5308L21.1975 7.61111H19H16.8025L15.4692 6.36325H14.1359L13.1667 5.45619V4.70747L12.5 4.08354V1.90279L13.1667 1.27886V0.654925L14.1359 -0.252137H15.4692L16.8025 -1.5H19Z" fill="#005B13"></path>
<path fill-rule="evenodd" clip-rule="evenodd" d="M24 58.4794L20.2639 56.6113H17.7361L14 58.4794V61.7433L17.7361 63.6113H20.2639L24 61.7433V58.4794ZM25 62.3613V57.8613L20.5 55.6113H17.5L13 57.8613V62.3613L17.5 64.6113H20.5L25 62.3613Z" fill="#005B13"></path>
<path fill-rule="evenodd" clip-rule="evenodd" d="M17 11.6113H19H21V13.1113H23.25V14.6113H25.5V20.1113H23.25V21.6113H21V23.1113H19H17V21.6113H14.75V20.1113H12.5V14.6113H14.75V13.1113H17V11.6113ZM19 22.1113H20V20.6113H22.25V19.1113H24.5V15.6113H22.7508H22.25V14.1113H20V12.6113H19H18V14.1113H15.75V15.6113H15.2492H13.5V19.1113H15.75V20.6113H18V22.1113H19Z" fill="#FFD400"></path>
<path fill-rule="evenodd" clip-rule="evenodd" d="M20.8208 39.1113H22.5V40.1113H21.1792L19.7872 41.2559L19.9333 41.376H22.877V42.7237H25.5V47.7682H22.877V48.8466H19.9333L19.7872 48.9667L21.1792 50.1113H22.5V51.1113H20.8208L19 49.614L17.1792 51.1113H15.5V50.1113H16.8208L18.2128 48.9667L18.0667 48.8466H15.123V47.7682H12.5V42.7237H15.123V41.376H18.0667L18.2128 41.2559L16.8208 40.1113H15.5V39.1113H17.1792L19 40.6086L20.8208 39.1113ZM19 41.9032L18.4251 42.376H16.123V43.7237H13.5V46.7682H16.123V47.8466H18.4251L19 48.3194L19.5749 47.8466H21.877V46.7682H24.5V43.7237H21.877V42.376H19.5749L19 41.9032Z" fill="#FFD400"></path>
</g>
</g>
<defs>
<clipPath id="clip0_199_10151">
<rect width="64" height="64" rx="32" fill="white"></rect>
</clipPath>
</defs>
</svg>
