<svg width="64" height="64" viewBox="0 0 64 64" fill="none" xmlns="http://www.w3.org/2000/svg">
<g clip-path="url(#clip0_199_9710)">
<path d="M1.80078 21.3334H62.1341C60.7341 17.3334 58.5341 13.7334 55.8008 10.6667H8.13411C5.40078 13.7334 3.26745 17.3334 1.80078 21.3334Z" fill="#FFD400"/>
<path d="M8.13379 10.6667H55.8005C50.0005 4.13333 41.4671 0 32.0005 0C22.5338 0 14.0005 4.13333 8.13379 10.6667Z" fill="black"/>
<path d="M0 31.9999H64C64 28.2666 63.3333 24.6666 62.2 21.3333H1.8C0.666667 24.6666 0 28.2666 0 31.9999Z" fill="#F0263C"/>
<path d="M8.13411 53.3334H55.8008C58.5341 50.2667 60.7341 46.6667 62.1341 42.6667H1.80078C3.26745 46.6667 5.40078 50.2667 8.13411 53.3334Z" fill="#FFD400"/>
<path d="M1.8 42.6667H62.1333C63.3333 39.3333 64 35.7333 64 32H0C0 35.7333 0.666667 39.3333 1.8 42.6667Z" fill="black"/>
<path d="M55.8671 53.3333H8.13379C14.0005 59.8666 22.5338 63.9999 32.0005 63.9999C41.4671 63.9999 50.0005 59.8666 55.8671 53.3333Z" fill="#F0263C"/>
<path d="M32.0003 41.3332C37.155 41.3332 41.3337 37.1545 41.3337 31.9998C41.3337 26.8452 37.155 22.6665 32.0003 22.6665C26.8457 22.6665 22.667 26.8452 22.667 31.9998C22.667 37.1545 26.8457 41.3332 32.0003 41.3332Z" fill="white"/>
<path d="M28.0003 26.6664L29.3337 25.3331L30.667 23.9998H32.0003V26.6664L30.667 29.3331L34.667 30.6664L37.3337 33.3331V35.9998V37.3331H36.0003L34.667 35.9998H33.3337V38.6664L34.667 39.9998H30.667L32.0003 38.6664V35.9998H29.3337V37.3331H26.667L28.0003 35.9998L29.3337 34.6664H32.0003L28.0003 31.9998V29.3331L30.667 26.6664H28.0003Z" fill="black"/>
<path d="M30.667 30.6665L33.3337 33.3332L34.667 34.6665V35.9998L36.0003 37.3332H37.3337V33.3332L34.667 30.6665H30.667Z" fill="#F0263C"/>
<path d="M34.667 33.3332H33.3337L30.667 30.6665H33.3337L36.0003 33.3332H34.667Z" fill="white"/>
</g>
<defs>
<clipPath id="clip0_199_9710">
<rect width="64" height="64" fill="white"/>
</clipPath>
</defs>
</svg>
