<svg width="32" height="32" fill="none" xmlns="http://www.w3.org/2000/svg"><g clip-path="url(#prefix__prefix__clip0_2261_60189)"><g clip-path="url(#prefix__prefix__clip1_2261_60189)"><rect width="32" height="32" rx="16" fill="#fff"/><circle cx="16" cy="16" r="16" fill="#fff"/><path d="M16 14.111V-2c-.443 0-.927 0-1.37.04l.766.766-1.007 1.006-1.007-1.006.725-.725c-1.007.08-1.974.282-2.9.523l.16.202-1.006 1.006-.725-.724a18.691 18.691 0 00-4.31 2.134c-.08.04-.16.121-.241.161l.241.242L4.32 2.632l-.402-.403c-.524.403-1.007.846-1.49 1.33l.885.885-1.007 1.007-.845-.845A19.76 19.76 0 00-.111 6.66l.403-.403 1.006 1.007L.292 8.27l-.887-.886c-.04.08-.12.16-.16.282a27.79 27.79 0 00-.806 1.57l.846.846-1.007 1.007-.403-.402c-.04.08-.04.16-.08.2a21.015 21.015 0 00-.847 3.223 17.121 17.121 0 00-.281 3.222H16V14.11zM12.375.618l1.007 1.007-1.007 1.007-1.007-1.007L12.375.618zm1.007 6.646L12.375 8.27l-1.007-1.007 1.007-1.007 1.007 1.007zm-2.014-2.82L10.36 5.451 9.354 4.444l1.007-1.006 1.007 1.006zM10.36 9.076l1.007 1.007-1.007 1.007-1.007-1.007 1.007-1.007zm-2.014-.805L7.34 7.264l1.007-1.007 1.007 1.007L8.347 8.27zm0-7.653l1.007 1.007-1.007 1.007L7.34 1.625 8.347.618zm-2.014 2.82L7.34 4.444 6.333 5.451 5.326 4.444l1.007-1.006zm1.007 6.645L6.333 11.09l-1.007-1.007 1.007-1.007 1.007 1.007zM4.32 6.257l1.006 1.007L4.32 8.27 3.312 7.264 4.32 6.257zm-2.015 2.82l1.007 1.006-1.007 1.007-1.007-1.007 1.007-1.007zm-4.027 7.652l-1.007-1.007 1.007-1.007 1.007 1.007-1.007 1.007zm1.007-3.826l1.007-1.007 1.006 1.007L.292 13.91l-1.007-1.007zm3.02 3.826l-1.007-1.007 1.007-1.007 1.007 1.007-1.007 1.007zm1.007-3.826l1.007-1.007 1.007 1.007L4.32 13.91l-1.007-1.007zm3.021 3.826l-1.007-1.007 1.007-1.007 1.007 1.007-1.007 1.007zm1.007-3.826l1.007-1.007 1.007 1.007-1.007 1.007-1.007-1.007zm3.02 3.826l-1.006-1.007 1.007-1.007 1.007 1.007-1.007 1.007zm1.008-3.826l1.007-1.007 1.007 1.007-1.007 1.007-1.007-1.007zm3.02 3.826l-1.006-1.007 1.007-1.007 1.007 1.007-1.007 1.007zm0-5.639l-1.006-1.007 1.007-1.007 1.007 1.007-1.007 1.007zm0-5.639l-1.006-1.007 1.007-1.006 1.007 1.006-1.007 1.007z" fill="#231D9A"/><path fill="#F0263C" d="M16-1.333h25.333v2.667H16zM16 4h18.667v2.667H16zm0 5.334h18.667v2.667H16zm0 5.332h25.333v2.667H16zM-.667 20h42v2.667h-42zm0 5.334h42v2.667h-42zm0 5.332h42v2.667h-42z"/></g></g><defs><clipPath id="prefix__prefix__clip0_2261_60189"><path fill="#fff" d="M0 0h32v32H0z"/></clipPath><clipPath id="prefix__prefix__clip1_2261_60189"><rect width="32" height="32" rx="16" fill="#fff"/></clipPath></defs></svg>