<svg width="64" height="64" viewBox="0 0 64 64" fill="none" xmlns="http://www.w3.org/2000/svg">
<g clip-path="url(#clip0_199_9611)">
<rect width="64" height="64" rx="32" fill="white"></rect>
<clipPath id="mask0_199_9611" style="mask-type:alpha" maskUnits="userSpaceOnUse" x="0" y="0" width="64" height="64"><circle cx="32" cy="32" r="32" fill="white"></circle></clipPath>
<g clip-path="url(#mask0_199_9611)">
<path d="M0 0H64V64H0V0Z" fill="white"></path>
<path d="M44.5 32C44.5 28.6848 43.183 25.5054 40.8388 23.1612C38.4946 20.817 35.3152 19.5 32 19.5C28.6848 19.5 25.5054 20.817 23.1612 23.1612C20.817 25.5054 19.5 28.6848 19.5 32L32 32H44.5Z" fill="#FFD400"></path>
<path d="M19.5 32C19.5 35.3152 20.817 38.4946 23.1612 40.8388C25.5054 43.183 28.6848 44.5 32 44.5C35.3152 44.5 38.4946 43.183 40.8388 40.8388C43.183 38.4946 44.5 35.3152 44.5 32L32 32L19.5 32Z" fill="#78C9FF"></path>
<path d="M44.5 44.5C47.8152 44.5 50.9946 43.183 53.3388 40.8388C55.683 38.4946 57 35.3152 57 32C57 28.6848 55.683 25.5054 53.3388 23.1612C50.9946 20.817 47.8152 19.5 44.5 19.5L44.5 22C47.1522 22 49.6957 23.0536 51.5711 24.9289C53.4464 26.8043 54.5 29.3478 54.5 32C54.5 34.6522 53.4464 37.1957 51.5711 39.0711C49.6957 40.9464 47.1522 42 44.5 42L44.5 44.5Z" fill="#231D9A"></path>
<path d="M19.5 19.5C16.1848 19.5 13.0054 20.817 10.6612 23.1612C8.31696 25.5054 7 28.6848 7 32C7 35.3152 8.31696 38.4946 10.6612 40.8388C13.0054 43.183 16.1848 44.5 19.5 44.5L19.5 42C16.8478 42 14.3043 40.9464 12.4289 39.0711C10.5536 37.1957 9.5 34.6522 9.5 32C9.5 29.3478 10.5536 26.8043 12.4289 24.9289C14.3043 23.0536 16.8478 22 19.5 22L19.5 19.5Z" fill="#005B13"></path>
<path d="M19.5 32C19.5 35.3152 20.817 38.4946 23.1612 40.8388C25.5054 43.183 28.6848 44.5 32 44.5C35.3152 44.5 38.4946 43.183 40.8388 40.8388C43.183 38.4946 44.5 35.3152 44.5 32L32 32L19.5 32Z" fill="#231D9A"></path>
</g>
</g>
<defs>
<clipPath id="clip0_199_9611">
<rect width="64" height="64" rx="32" fill="white"></rect>
</clipPath>
</defs>
</svg>
