<svg width="64" height="64" viewBox="0 0 64 64" fill="none" xmlns="http://www.w3.org/2000/svg">
<g clip-path="url(#clip0_199_9552)">
<path d="M62.2001 21.3333C57.8001 8.93333 45.9335 0 32.0001 0C25.0668 0 18.6668 2.2 13.4668 5.93333L28.8668 21.3333H62.2001Z" fill="#F0263C"/>
<path d="M1.2 23.3999C0.4 26.1332 0 28.9999 0 31.9999C0 34.9999 0.4 37.8666 1.2 40.5999L9.8 31.9999L1.2 23.3999Z" fill="black"/>
<path d="M13.4668 58.0665C18.6668 61.7998 25.0668 63.9998 32.0001 63.9998C45.9335 63.9998 57.8001 55.0665 62.2001 42.6665H28.8668L13.4668 58.0665Z" fill="#231D9A"/>
<path d="M9.39993 9.3999C6.93327 11.8666 4.8666 14.7999 3.2666 17.9332L17.3333 31.9999L3.2666 46.0666C4.79993 49.2666 6.8666 52.1332 9.39993 54.5999L26.6666 37.3332H63.5333C63.7999 35.5999 63.9999 33.7999 63.9999 31.9999C63.9999 30.1999 63.8666 28.3999 63.5333 26.6666H26.6666L9.39993 9.3999Z" fill="#005B13"/>
<path d="M9.40039 9.40026L26.6671 26.6669H63.5337C63.2004 24.8003 62.7337 23.0669 62.1337 21.3336H28.8671L13.4671 5.93359C12.0004 6.93359 10.6671 8.13359 9.40039 9.40026Z" fill="white"/>
<path d="M26.6671 37.3335L9.40039 54.6002C10.6671 55.8668 12.0671 57.0002 13.4671 58.0668L28.8671 42.6668H62.1337C62.7337 40.9335 63.2004 39.2002 63.5337 37.3335H26.6671Z" fill="white"/>
<path d="M17.3326 32.0003L3.26589 17.9336C2.39922 19.6669 1.73255 21.5336 1.19922 23.4003L9.79922 32.0003L1.19922 40.6003C1.73255 42.4669 2.39922 44.3336 3.26589 46.0669L17.3326 32.0003Z" fill="#FFD400"/>
</g>
<defs>
<clipPath id="clip0_199_9552">
<rect width="64" height="64" fill="white"/>
</clipPath>
</defs>
</svg>
