<svg width="64" height="64" viewBox="0 0 64 64" fill="none" xmlns="http://www.w3.org/2000/svg">
<g clip-path="url(#clip0_199_9701)">
<path d="M32 64C49.6731 64 64 49.6731 64 32C64 14.3269 49.6731 0 32 0C14.3269 0 0 14.3269 0 32C0 49.6731 14.3269 64 32 64Z" fill="#005B13"/>
<path d="M42.6667 24H32V64C35.7333 64 39.3333 63.3333 42.6667 62.2V24Z" fill="#F0263C"/>
<path d="M42.667 62.2C46.667 60.8 50.267 58.6 53.3337 55.8667V24H42.667V62.2Z" fill="black"/>
<path d="M53.333 24V55.8667C59.8663 50 63.9997 41.4667 63.9997 32C63.9997 29.2667 63.6663 26.5333 62.9997 24H53.333Z" fill="#CC9500"/>
<path d="M51.9997 11.9999L50.6663 13.3333L49.333 11.9999L50.6663 10.6666H46.6663V11.9999L45.333 13.3333L43.9997 11.9999H41.333L38.6663 10.6666H37.333L35.9997 9.33325H33.333V10.6666L34.6663 11.9999V13.3333H35.9997V14.6666H37.333L39.9997 15.9999H41.333L43.9997 17.3333L45.333 18.6666V19.9999L43.9997 21.3333H46.5997L47.9997 19.9999L49.2663 21.3333H51.9997L50.6663 19.9999V18.6666L51.9997 17.3333L54.6663 15.9999H55.9997L58.6663 14.6666H58.8663C58.0663 13.4666 57.1997 12.2666 56.2663 11.1999L54.6663 11.9999H51.9997Z" fill="#CC9500"/>
</g>
<defs>
<clipPath id="clip0_199_9701">
<rect width="64" height="64" fill="white"/>
</clipPath>
</defs>
</svg>
